<?xml version="1.0" encoding="UTF-8" standalone="no"?>
<!DOCTYPE svg PUBLIC "-//W3C//DTD SVG 1.1//EN"
 "http://www.w3.org/Graphics/SVG/1.1/DTD/svg11.dtd">
<!-- Generated by graphviz version 2.47.0 (20210316.0004)
 -->
<!-- Title: dependencies Pages: 1 -->
<svg width="504pt" height="284pt"
 viewBox="0.00 0.00 504.00 284.00" xmlns="http://www.w3.org/2000/svg" xmlns:xlink="http://www.w3.org/1999/xlink">
<g id="graph0" class="graph" transform="scale(1 1) rotate(0) translate(4 280)">
<title>dependencies</title>
<polygon fill="white" stroke="transparent" points="-4,4 -4,-280 500,-280 500,4 -4,4"/>
<text text-anchor="start" x="227.01" y="-42.4" font-family="Times-12" font-weight="bold" font-size="14.00">Legend</text>
<polygon fill="#ffffb3" stroke="transparent" points="14,-10 14,-30 34,-30 34,-10 14,-10"/>
<text text-anchor="start" x="37.63" y="-15.4" font-family="Times-12" font-size="14.00"> &#160;Declarations</text>
<polygon fill="#8dd3c7" stroke="transparent" points="127,-10 127,-30 147,-30 147,-10 127,-10"/>
<text text-anchor="start" x="150.73" y="-15.4" font-family="Times-12" font-size="14.00"> &#160;Module</text>
<polygon fill="#80b1d3" stroke="transparent" points="213,-10 213,-30 233,-30 233,-10 213,-10"/>
<text text-anchor="start" x="236.78" y="-15.4" font-family="Times-12" font-size="14.00"> &#160;Bootstrap</text>
<polygon fill="#fdb462" stroke="transparent" points="310,-10 310,-30 330,-30 330,-10 310,-10"/>
<text text-anchor="start" x="333.67" y="-15.4" font-family="Times-12" font-size="14.00"> &#160;Providers</text>
<polygon fill="#fb8072" stroke="transparent" points="406,-10 406,-30 426,-30 426,-10 406,-10"/>
<text text-anchor="start" x="429.73" y="-15.4" font-family="Times-12" font-size="14.00"> &#160;Exports</text>
<g id="clust1" class="cluster">
<title>cluster_ImagesModule</title>
<polygon fill="none" stroke="black" stroke-dasharray="1,5" points="101,-70 101,-268 395,-268 395,-70 101,-70"/>
</g>
<g id="clust6" class="cluster">
<title>cluster_ImagesModule_providers</title>
<polygon fill="none" stroke="black" points="235,-78 235,-130 387,-130 387,-78 235,-78"/>
</g>
<g id="clust4" class="cluster">
<title>cluster_ImagesModule_exports</title>
<polygon fill="none" stroke="black" points="180,-208 180,-260 298,-260 298,-208 180,-208"/>
</g>
<g id="clust3" class="cluster">
<title>cluster_ImagesModule_imports</title>
<polygon fill="none" stroke="black" points="109,-78 109,-130 227,-130 227,-78 109,-78"/>
</g>
<!-- StorageModule -->
<g id="node1" class="node">
<title>StorageModule</title>
<polygon fill="#8dd3c7" stroke="black" points="219.31,-122 216.31,-126 195.31,-126 192.31,-122 116.69,-122 116.69,-86 219.31,-86 219.31,-122"/>
<text text-anchor="middle" x="168" y="-99.8" font-family="Times,serif" font-size="14.00">StorageModule</text>
</g>
<!-- ImagesModule -->
<g id="node2" class="node">
<title>ImagesModule</title>
<polygon fill="#8dd3c7" stroke="black" points="288.97,-187 285.97,-191 264.97,-191 261.97,-187 189.03,-187 189.03,-151 288.97,-151 288.97,-187"/>
<text text-anchor="middle" x="239" y="-164.8" font-family="Times,serif" font-size="14.00">ImagesModule</text>
</g>
<!-- StorageModule&#45;&gt;ImagesModule -->
<g id="edge1" class="edge">
<title>StorageModule&#45;&gt;ImagesModule</title>
<path fill="none" stroke="black" d="M204.08,-122.11C204.08,-122.11 204.08,-140.99 204.08,-140.99"/>
<polygon fill="black" stroke="black" points="200.58,-140.99 204.08,-150.99 207.58,-140.99 200.58,-140.99"/>
</g>
<!-- ImagesService  -->
<g id="node3" class="node">
<title>ImagesService </title>
<polygon fill="#fb8072" stroke="black" points="289.9,-252 188.1,-252 188.1,-216 289.9,-216 289.9,-252"/>
<text text-anchor="middle" x="239" y="-229.8" font-family="Times,serif" font-size="14.00">ImagesService </text>
</g>
<!-- ImagesModule&#45;&gt;ImagesService  -->
<g id="edge2" class="edge">
<title>ImagesModule&#45;&gt;ImagesService </title>
<path fill="none" stroke="black" stroke-dasharray="5,2" d="M239,-187.11C239,-187.11 239,-205.99 239,-205.99"/>
<polygon fill="black" stroke="black" points="235.5,-205.99 239,-215.99 242.5,-205.99 235.5,-205.99"/>
</g>
<!-- ImagesService -->
<g id="node4" class="node">
<title>ImagesService</title>
<ellipse fill="#fdb462" stroke="black" cx="311" cy="-104" rx="67.75" ry="18"/>
<text text-anchor="middle" x="311" y="-99.8" font-family="Times,serif" font-size="14.00">ImagesService</text>
</g>
<!-- ImagesService&#45;&gt;ImagesModule -->
<g id="edge3" class="edge">
<title>ImagesService&#45;&gt;ImagesModule</title>
<path fill="none" stroke="black" d="M266.06,-117.78C266.06,-117.78 266.06,-140.55 266.06,-140.55"/>
<polygon fill="black" stroke="black" points="262.56,-140.55 266.06,-150.55 269.56,-140.55 262.56,-140.55"/>
</g>
</g>
</svg>
