<?xml version="1.0" encoding="UTF-8" standalone="no"?>
<!DOCTYPE svg PUBLIC "-//W3C//DTD SVG 1.1//EN"
 "http://www.w3.org/Graphics/SVG/1.1/DTD/svg11.dtd">
<!-- Generated by graphviz version 2.47.0 (20210316.0004)
 -->
<!-- Title: dependencies Pages: 1 -->
<svg width="842pt" height="284pt"
 viewBox="0.00 0.00 842.00 284.00" xmlns="http://www.w3.org/2000/svg" xmlns:xlink="http://www.w3.org/1999/xlink">
<g id="graph0" class="graph" transform="scale(1 1) rotate(0) translate(4 280)">
<title>dependencies</title>
<polygon fill="white" stroke="transparent" points="-4,4 -4,-280 838,-280 838,4 -4,4"/>
<text text-anchor="start" x="396.01" y="-42.4" font-family="Times-12" font-weight="bold" font-size="14.00">Legend</text>
<polygon fill="#ffffb3" stroke="transparent" points="183,-10 183,-30 203,-30 203,-10 183,-10"/>
<text text-anchor="start" x="206.63" y="-15.4" font-family="Times-12" font-size="14.00"> &#160;Declarations</text>
<polygon fill="#8dd3c7" stroke="transparent" points="296,-10 296,-30 316,-30 316,-10 296,-10"/>
<text text-anchor="start" x="319.73" y="-15.4" font-family="Times-12" font-size="14.00"> &#160;Module</text>
<polygon fill="#80b1d3" stroke="transparent" points="382,-10 382,-30 402,-30 402,-10 382,-10"/>
<text text-anchor="start" x="405.78" y="-15.4" font-family="Times-12" font-size="14.00"> &#160;Bootstrap</text>
<polygon fill="#fdb462" stroke="transparent" points="479,-10 479,-30 499,-30 499,-10 479,-10"/>
<text text-anchor="start" x="502.67" y="-15.4" font-family="Times-12" font-size="14.00"> &#160;Providers</text>
<polygon fill="#fb8072" stroke="transparent" points="575,-10 575,-30 595,-30 595,-10 575,-10"/>
<text text-anchor="start" x="598.73" y="-15.4" font-family="Times-12" font-size="14.00"> &#160;Exports</text>
<g id="clust1" class="cluster">
<title>cluster_AuthModule</title>
<polygon fill="none" stroke="black" stroke-dasharray="1,5" points="8,-70 8,-268 826,-268 826,-70 8,-70"/>
</g>
<g id="clust3" class="cluster">
<title>cluster_AuthModule_imports</title>
<polygon fill="none" stroke="black" points="588,-78 588,-130 818,-130 818,-78 588,-78"/>
</g>
<g id="clust6" class="cluster">
<title>cluster_AuthModule_providers</title>
<polygon fill="none" stroke="black" points="16,-78 16,-130 580,-130 580,-78 16,-78"/>
</g>
<g id="clust4" class="cluster">
<title>cluster_AuthModule_exports</title>
<polygon fill="none" stroke="black" points="403,-208 403,-260 621,-260 621,-208 403,-208"/>
</g>
<!-- MailingModule -->
<g id="node1" class="node">
<title>MailingModule</title>
<polygon fill="#8dd3c7" stroke="black" points="809.88,-122 806.88,-126 785.88,-126 782.88,-122 706.12,-122 706.12,-86 809.88,-86 809.88,-122"/>
<text text-anchor="middle" x="758" y="-99.8" font-family="Times,serif" font-size="14.00">MailingModule</text>
</g>
<!-- AuthModule -->
<g id="node3" class="node">
<title>AuthModule</title>
<polygon fill="#8dd3c7" stroke="black" points="556.55,-187 553.55,-191 532.55,-191 529.55,-187 469.45,-187 469.45,-151 556.55,-151 556.55,-187"/>
<text text-anchor="middle" x="513" y="-164.8" font-family="Times,serif" font-size="14.00">AuthModule</text>
</g>
<!-- MailingModule&#45;&gt;AuthModule -->
<g id="edge1" class="edge">
<title>MailingModule&#45;&gt;AuthModule</title>
<path fill="none" stroke="black" d="M758,-122.28C758,-143.32 758,-175 758,-175 758,-175 566.8,-175 566.8,-175"/>
<polygon fill="black" stroke="black" points="566.8,-171.5 556.8,-175 566.8,-178.5 566.8,-171.5"/>
</g>
<!-- UsersModule -->
<g id="node2" class="node">
<title>UsersModule</title>
<polygon fill="#8dd3c7" stroke="black" points="687.92,-122 684.92,-126 663.92,-126 660.92,-122 596.08,-122 596.08,-86 687.92,-86 687.92,-122"/>
<text text-anchor="middle" x="642" y="-99.8" font-family="Times,serif" font-size="14.00">UsersModule</text>
</g>
<!-- UsersModule&#45;&gt;AuthModule -->
<g id="edge2" class="edge">
<title>UsersModule&#45;&gt;AuthModule</title>
<path fill="none" stroke="black" d="M604.51,-122.02C604.51,-139.37 604.51,-163 604.51,-163 604.51,-163 566.61,-163 566.61,-163"/>
<polygon fill="black" stroke="black" points="566.61,-159.5 556.61,-163 566.61,-166.5 566.61,-159.5"/>
</g>
<!-- AuthService  -->
<g id="node4" class="node">
<title>AuthService </title>
<polygon fill="#fb8072" stroke="black" points="612.98,-252 523.02,-252 523.02,-216 612.98,-216 612.98,-252"/>
<text text-anchor="middle" x="568" y="-229.8" font-family="Times,serif" font-size="14.00">AuthService </text>
</g>
<!-- AuthModule&#45;&gt;AuthService  -->
<g id="edge3" class="edge">
<title>AuthModule&#45;&gt;AuthService </title>
<path fill="none" stroke="black" stroke-dasharray="5,2" d="M540.02,-187.11C540.02,-187.11 540.02,-205.99 540.02,-205.99"/>
<polygon fill="black" stroke="black" points="536.52,-205.99 540.02,-215.99 543.52,-205.99 536.52,-205.99"/>
</g>
<!-- UsersModule  -->
<g id="node5" class="node">
<title>UsersModule </title>
<polygon fill="#fb8072" stroke="black" points="505.42,-252 410.58,-252 410.58,-216 505.42,-216 505.42,-252"/>
<text text-anchor="middle" x="458" y="-229.8" font-family="Times,serif" font-size="14.00">UsersModule </text>
</g>
<!-- AuthModule&#45;&gt;UsersModule  -->
<g id="edge4" class="edge">
<title>AuthModule&#45;&gt;UsersModule </title>
<path fill="none" stroke="black" stroke-dasharray="5,2" d="M487.34,-187.11C487.34,-187.11 487.34,-205.99 487.34,-205.99"/>
<polygon fill="black" stroke="black" points="483.84,-205.99 487.34,-215.99 490.84,-205.99 483.84,-205.99"/>
</g>
<!-- AuthService -->
<g id="node6" class="node">
<title>AuthService</title>
<ellipse fill="#fdb462" stroke="black" cx="513" cy="-104" rx="59.11" ry="18"/>
<text text-anchor="middle" x="513" y="-99.8" font-family="Times,serif" font-size="14.00">AuthService</text>
</g>
<!-- AuthService&#45;&gt;AuthModule -->
<g id="edge5" class="edge">
<title>AuthService&#45;&gt;AuthModule</title>
<path fill="none" stroke="black" d="M513,-122.11C513,-122.11 513,-140.99 513,-140.99"/>
<polygon fill="black" stroke="black" points="509.5,-140.99 513,-150.99 516.5,-140.99 509.5,-140.99"/>
</g>
<!-- PayloadFromTokenPipe -->
<g id="node7" class="node">
<title>PayloadFromTokenPipe</title>
<ellipse fill="#fdb462" stroke="black" cx="331" cy="-104" rx="104.82" ry="18"/>
<text text-anchor="middle" x="331" y="-99.8" font-family="Times,serif" font-size="14.00">PayloadFromTokenPipe</text>
</g>
<!-- PayloadFromTokenPipe&#45;&gt;AuthModule -->
<g id="edge6" class="edge">
<title>PayloadFromTokenPipe&#45;&gt;AuthModule</title>
<path fill="none" stroke="black" d="M423.22,-112.71C423.22,-129.12 423.22,-163 423.22,-163 423.22,-163 459.43,-163 459.43,-163"/>
<polygon fill="black" stroke="black" points="459.43,-166.5 469.43,-163 459.43,-159.5 459.43,-166.5"/>
</g>
<!-- UserFromTokenPipe -->
<g id="node8" class="node">
<title>UserFromTokenPipe</title>
<ellipse fill="#fdb462" stroke="black" cx="116" cy="-104" rx="92.05" ry="18"/>
<text text-anchor="middle" x="116" y="-99.8" font-family="Times,serif" font-size="14.00">UserFromTokenPipe</text>
</g>
<!-- UserFromTokenPipe&#45;&gt;AuthModule -->
<g id="edge7" class="edge">
<title>UserFromTokenPipe&#45;&gt;AuthModule</title>
<path fill="none" stroke="black" d="M116,-122.28C116,-143.32 116,-175 116,-175 116,-175 459.38,-175 459.38,-175"/>
<polygon fill="black" stroke="black" points="459.38,-178.5 469.38,-175 459.38,-171.5 459.38,-178.5"/>
</g>
</g>
</svg>
