<?xml version="1.0" encoding="UTF-8" standalone="no"?>
<!DOCTYPE svg PUBLIC "-//W3C//DTD SVG 1.1//EN"
 "http://www.w3.org/Graphics/SVG/1.1/DTD/svg11.dtd">
<!-- Generated by graphviz version 2.47.0 (20210316.0004)
 -->
<!-- Title: dependencies Pages: 1 -->
<svg width="504pt" height="284pt"
 viewBox="0.00 0.00 504.00 284.00" xmlns="http://www.w3.org/2000/svg" xmlns:xlink="http://www.w3.org/1999/xlink">
<g id="graph0" class="graph" transform="scale(1 1) rotate(0) translate(4 280)">
<title>dependencies</title>
<polygon fill="white" stroke="transparent" points="-4,4 -4,-280 500,-280 500,4 -4,4"/>
<text text-anchor="start" x="227.01" y="-42.4" font-family="Times-12" font-weight="bold" font-size="14.00">Legend</text>
<polygon fill="#ffffb3" stroke="transparent" points="14,-10 14,-30 34,-30 34,-10 14,-10"/>
<text text-anchor="start" x="37.63" y="-15.4" font-family="Times-12" font-size="14.00"> &#160;Declarations</text>
<polygon fill="#8dd3c7" stroke="transparent" points="127,-10 127,-30 147,-30 147,-10 127,-10"/>
<text text-anchor="start" x="150.73" y="-15.4" font-family="Times-12" font-size="14.00"> &#160;Module</text>
<polygon fill="#80b1d3" stroke="transparent" points="213,-10 213,-30 233,-30 233,-10 213,-10"/>
<text text-anchor="start" x="236.78" y="-15.4" font-family="Times-12" font-size="14.00"> &#160;Bootstrap</text>
<polygon fill="#fdb462" stroke="transparent" points="310,-10 310,-30 330,-30 330,-10 310,-10"/>
<text text-anchor="start" x="333.67" y="-15.4" font-family="Times-12" font-size="14.00"> &#160;Providers</text>
<polygon fill="#fb8072" stroke="transparent" points="406,-10 406,-30 426,-30 426,-10 406,-10"/>
<text text-anchor="start" x="429.73" y="-15.4" font-family="Times-12" font-size="14.00"> &#160;Exports</text>
<g id="clust1" class="cluster">
<title>cluster_TranslationsModule</title>
<polygon fill="none" stroke="black" stroke-dasharray="1,5" points="72,-70 72,-268 424,-268 424,-70 72,-70"/>
</g>
<g id="clust4" class="cluster">
<title>cluster_TranslationsModule_exports</title>
<polygon fill="none" stroke="black" points="163,-208 163,-260 309,-260 309,-208 163,-208"/>
</g>
<g id="clust6" class="cluster">
<title>cluster_TranslationsModule_providers</title>
<polygon fill="none" stroke="black" points="224,-78 224,-130 416,-130 416,-78 224,-78"/>
</g>
<g id="clust3" class="cluster">
<title>cluster_TranslationsModule_imports</title>
<polygon fill="none" stroke="black" points="80,-78 80,-130 216,-130 216,-78 80,-78"/>
</g>
<!-- LanguagesModule -->
<g id="node1" class="node">
<title>LanguagesModule</title>
<polygon fill="#8dd3c7" stroke="black" points="208.19,-122 205.19,-126 184.19,-126 181.19,-122 87.81,-122 87.81,-86 208.19,-86 208.19,-122"/>
<text text-anchor="middle" x="148" y="-99.8" font-family="Times,serif" font-size="14.00">LanguagesModule</text>
</g>
<!-- TranslationsModule -->
<g id="node2" class="node">
<title>TranslationsModule</title>
<polygon fill="#8dd3c7" stroke="black" points="300.25,-187 297.25,-191 276.25,-191 273.25,-187 171.75,-187 171.75,-151 300.25,-151 300.25,-187"/>
<text text-anchor="middle" x="236" y="-164.8" font-family="Times,serif" font-size="14.00">TranslationsModule</text>
</g>
<!-- LanguagesModule&#45;&gt;TranslationsModule -->
<g id="edge1" class="edge">
<title>LanguagesModule&#45;&gt;TranslationsModule</title>
<path fill="none" stroke="black" d="M189.86,-122.11C189.86,-122.11 189.86,-140.99 189.86,-140.99"/>
<polygon fill="black" stroke="black" points="186.36,-140.99 189.86,-150.99 193.36,-140.99 186.36,-140.99"/>
</g>
<!-- TranslationsService  -->
<g id="node3" class="node">
<title>TranslationsService </title>
<polygon fill="#fb8072" stroke="black" points="301.18,-252 170.82,-252 170.82,-216 301.18,-216 301.18,-252"/>
<text text-anchor="middle" x="236" y="-229.8" font-family="Times,serif" font-size="14.00">TranslationsService </text>
</g>
<!-- TranslationsModule&#45;&gt;TranslationsService  -->
<g id="edge2" class="edge">
<title>TranslationsModule&#45;&gt;TranslationsService </title>
<path fill="none" stroke="black" stroke-dasharray="5,2" d="M236,-187.11C236,-187.11 236,-205.99 236,-205.99"/>
<polygon fill="black" stroke="black" points="232.5,-205.99 236,-215.99 239.5,-205.99 232.5,-205.99"/>
</g>
<!-- TranslationsService -->
<g id="node4" class="node">
<title>TranslationsService</title>
<ellipse fill="#fdb462" stroke="black" cx="320" cy="-104" rx="87.95" ry="18"/>
<text text-anchor="middle" x="320" y="-99.8" font-family="Times,serif" font-size="14.00">TranslationsService</text>
</g>
<!-- TranslationsService&#45;&gt;TranslationsModule -->
<g id="edge3" class="edge">
<title>TranslationsService&#45;&gt;TranslationsModule</title>
<path fill="none" stroke="black" d="M266.32,-118.43C266.32,-118.43 266.32,-140.89 266.32,-140.89"/>
<polygon fill="black" stroke="black" points="262.82,-140.89 266.32,-150.89 269.82,-140.89 262.82,-140.89"/>
</g>
</g>
</svg>
