<?xml version="1.0" encoding="UTF-8" standalone="no"?>
<!DOCTYPE svg PUBLIC "-//W3C//DTD SVG 1.1//EN"
 "http://www.w3.org/Graphics/SVG/1.1/DTD/svg11.dtd">
<!-- Generated by graphviz version 2.47.0 (20210316.0004)
 -->
<!-- Title: dependencies Pages: 1 -->
<svg width="594pt" height="211pt"
 viewBox="0.00 0.00 594.00 211.00" xmlns="http://www.w3.org/2000/svg" xmlns:xlink="http://www.w3.org/1999/xlink">
<g id="graph0" class="graph" transform="scale(1 1) rotate(0) translate(4 207)">
<title>dependencies</title>
<polygon fill="white" stroke="transparent" points="-4,4 -4,-207 590,-207 590,4 -4,4"/>
<text text-anchor="start" x="272.01" y="-42.4" font-family="Times-12" font-weight="bold" font-size="14.00">Legend</text>
<polygon fill="#ffffb3" stroke="transparent" points="59,-10 59,-30 79,-30 79,-10 59,-10"/>
<text text-anchor="start" x="82.63" y="-15.4" font-family="Times-12" font-size="14.00"> &#160;Declarations</text>
<polygon fill="#8dd3c7" stroke="transparent" points="172,-10 172,-30 192,-30 192,-10 172,-10"/>
<text text-anchor="start" x="195.73" y="-15.4" font-family="Times-12" font-size="14.00"> &#160;Module</text>
<polygon fill="#80b1d3" stroke="transparent" points="258,-10 258,-30 278,-30 278,-10 258,-10"/>
<text text-anchor="start" x="281.78" y="-15.4" font-family="Times-12" font-size="14.00"> &#160;Bootstrap</text>
<polygon fill="#fdb462" stroke="transparent" points="355,-10 355,-30 375,-30 375,-10 355,-10"/>
<text text-anchor="start" x="378.67" y="-15.4" font-family="Times-12" font-size="14.00"> &#160;Providers</text>
<polygon fill="#fb8072" stroke="transparent" points="451,-10 451,-30 471,-30 471,-10 451,-10"/>
<text text-anchor="start" x="474.73" y="-15.4" font-family="Times-12" font-size="14.00"> &#160;Exports</text>
<g id="clust1" class="cluster">
<title>cluster_PlacesModule</title>
<polygon fill="none" stroke="black" stroke-dasharray="1,5" points="8,-70 8,-195 578,-195 578,-70 8,-70"/>
</g>
<g id="clust6" class="cluster">
<title>cluster_PlacesModule_providers</title>
<polygon fill="none" stroke="black" points="424,-78 424,-130 570,-130 570,-78 424,-78"/>
</g>
<g id="clust3" class="cluster">
<title>cluster_PlacesModule_imports</title>
<polygon fill="none" stroke="black" points="16,-78 16,-130 416,-130 416,-78 16,-78"/>
</g>
<!-- CommentsModule -->
<g id="node1" class="node">
<title>CommentsModule</title>
<polygon fill="#8dd3c7" stroke="black" points="408.22,-122 405.22,-126 384.22,-126 381.22,-122 287.78,-122 287.78,-86 408.22,-86 408.22,-122"/>
<text text-anchor="middle" x="348" y="-99.8" font-family="Times,serif" font-size="14.00">CommentsModule</text>
</g>
<!-- PlacesModule -->
<g id="node4" class="node">
<title>PlacesModule</title>
<polygon fill="#8dd3c7" stroke="black" points="331.81,-187 328.81,-191 307.81,-191 304.81,-187 236.19,-187 236.19,-151 331.81,-151 331.81,-187"/>
<text text-anchor="middle" x="284" y="-164.8" font-family="Times,serif" font-size="14.00">PlacesModule</text>
</g>
<!-- CommentsModule&#45;&gt;PlacesModule -->
<g id="edge1" class="edge">
<title>CommentsModule&#45;&gt;PlacesModule</title>
<path fill="none" stroke="black" d="M309.77,-122.11C309.77,-122.11 309.77,-140.99 309.77,-140.99"/>
<polygon fill="black" stroke="black" points="306.27,-140.99 309.77,-150.99 313.27,-140.99 306.27,-140.99"/>
</g>
<!-- ImagesModule -->
<g id="node2" class="node">
<title>ImagesModule</title>
<polygon fill="#8dd3c7" stroke="black" points="269.97,-122 266.97,-126 245.97,-126 242.97,-122 170.03,-122 170.03,-86 269.97,-86 269.97,-122"/>
<text text-anchor="middle" x="220" y="-99.8" font-family="Times,serif" font-size="14.00">ImagesModule</text>
</g>
<!-- ImagesModule&#45;&gt;PlacesModule -->
<g id="edge2" class="edge">
<title>ImagesModule&#45;&gt;PlacesModule</title>
<path fill="none" stroke="black" d="M253.17,-122.11C253.17,-122.11 253.17,-140.99 253.17,-140.99"/>
<polygon fill="black" stroke="black" points="249.67,-140.99 253.17,-150.99 256.67,-140.99 249.67,-140.99"/>
</g>
<!-- TranslationsModule -->
<g id="node3" class="node">
<title>TranslationsModule</title>
<polygon fill="#8dd3c7" stroke="black" points="152.25,-122 149.25,-126 128.25,-126 125.25,-122 23.75,-122 23.75,-86 152.25,-86 152.25,-122"/>
<text text-anchor="middle" x="88" y="-99.8" font-family="Times,serif" font-size="14.00">TranslationsModule</text>
</g>
<!-- TranslationsModule&#45;&gt;PlacesModule -->
<g id="edge3" class="edge">
<title>TranslationsModule&#45;&gt;PlacesModule</title>
<path fill="none" stroke="black" d="M88,-122.11C88,-141.34 88,-169 88,-169 88,-169 226.3,-169 226.3,-169"/>
<polygon fill="black" stroke="black" points="226.3,-172.5 236.3,-169 226.3,-165.5 226.3,-172.5"/>
</g>
<!-- PlacesService -->
<g id="node5" class="node">
<title>PlacesService</title>
<ellipse fill="#fdb462" stroke="black" cx="497" cy="-104" rx="64.82" ry="18"/>
<text text-anchor="middle" x="497" y="-99.8" font-family="Times,serif" font-size="14.00">PlacesService</text>
</g>
<!-- PlacesService&#45;&gt;PlacesModule -->
<g id="edge4" class="edge">
<title>PlacesService&#45;&gt;PlacesModule</title>
<path fill="none" stroke="black" d="M497,-122.11C497,-141.34 497,-169 497,-169 497,-169 341.8,-169 341.8,-169"/>
<polygon fill="black" stroke="black" points="341.8,-165.5 331.8,-169 341.8,-172.5 341.8,-165.5"/>
</g>
</g>
</svg>
