<?xml version="1.0" encoding="UTF-8" standalone="no"?>
<!DOCTYPE svg PUBLIC "-//W3C//DTD SVG 1.1//EN"
 "http://www.w3.org/Graphics/SVG/1.1/DTD/svg11.dtd">
<!-- Generated by graphviz version 2.47.0 (20210316.0004)
 -->
<!-- Title: dependencies Pages: 1 -->
<svg width="504pt" height="211pt"
 viewBox="0.00 0.00 504.00 211.00" xmlns="http://www.w3.org/2000/svg" xmlns:xlink="http://www.w3.org/1999/xlink">
<g id="graph0" class="graph" transform="scale(1 1) rotate(0) translate(4 207)">
<title>dependencies</title>
<polygon fill="white" stroke="transparent" points="-4,4 -4,-207 500,-207 500,4 -4,4"/>
<text text-anchor="start" x="227.01" y="-42.4" font-family="Times-12" font-weight="bold" font-size="14.00">Legend</text>
<polygon fill="#ffffb3" stroke="transparent" points="14,-10 14,-30 34,-30 34,-10 14,-10"/>
<text text-anchor="start" x="37.63" y="-15.4" font-family="Times-12" font-size="14.00"> &#160;Declarations</text>
<polygon fill="#8dd3c7" stroke="transparent" points="127,-10 127,-30 147,-30 147,-10 127,-10"/>
<text text-anchor="start" x="150.73" y="-15.4" font-family="Times-12" font-size="14.00"> &#160;Module</text>
<polygon fill="#80b1d3" stroke="transparent" points="213,-10 213,-30 233,-30 233,-10 213,-10"/>
<text text-anchor="start" x="236.78" y="-15.4" font-family="Times-12" font-size="14.00"> &#160;Bootstrap</text>
<polygon fill="#fdb462" stroke="transparent" points="310,-10 310,-30 330,-30 330,-10 310,-10"/>
<text text-anchor="start" x="333.67" y="-15.4" font-family="Times-12" font-size="14.00"> &#160;Providers</text>
<polygon fill="#fb8072" stroke="transparent" points="406,-10 406,-30 426,-30 426,-10 406,-10"/>
<text text-anchor="start" x="429.73" y="-15.4" font-family="Times-12" font-size="14.00"> &#160;Exports</text>
<g id="clust1" class="cluster">
<title>cluster_PlaceTypesModule</title>
<polygon fill="none" stroke="black" stroke-dasharray="1,5" points="71,-70 71,-195 425,-195 425,-70 71,-70"/>
</g>
<g id="clust6" class="cluster">
<title>cluster_PlaceTypesModule_providers</title>
<polygon fill="none" stroke="black" points="231,-78 231,-130 417,-130 417,-78 231,-78"/>
</g>
<g id="clust3" class="cluster">
<title>cluster_PlaceTypesModule_imports</title>
<polygon fill="none" stroke="black" points="79,-78 79,-130 223,-130 223,-78 79,-78"/>
</g>
<!-- TranslationsModule -->
<g id="node1" class="node">
<title>TranslationsModule</title>
<polygon fill="#8dd3c7" stroke="black" points="215.25,-122 212.25,-126 191.25,-126 188.25,-122 86.75,-122 86.75,-86 215.25,-86 215.25,-122"/>
<text text-anchor="middle" x="151" y="-99.8" font-family="Times,serif" font-size="14.00">TranslationsModule</text>
</g>
<!-- PlaceTypesModule -->
<g id="node2" class="node">
<title>PlaceTypesModule</title>
<polygon fill="#8dd3c7" stroke="black" points="299.08,-187 296.08,-191 275.08,-191 272.08,-187 174.92,-187 174.92,-151 299.08,-151 299.08,-187"/>
<text text-anchor="middle" x="237" y="-164.8" font-family="Times,serif" font-size="14.00">PlaceTypesModule</text>
</g>
<!-- TranslationsModule&#45;&gt;PlaceTypesModule -->
<g id="edge1" class="edge">
<title>TranslationsModule&#45;&gt;PlaceTypesModule</title>
<path fill="none" stroke="black" d="M195.17,-122.11C195.17,-122.11 195.17,-140.99 195.17,-140.99"/>
<polygon fill="black" stroke="black" points="191.67,-140.99 195.17,-150.99 198.67,-140.99 191.67,-140.99"/>
</g>
<!-- PlaceTypesService -->
<g id="node3" class="node">
<title>PlaceTypesService</title>
<ellipse fill="#fdb462" stroke="black" cx="324" cy="-104" rx="84.51" ry="18"/>
<text text-anchor="middle" x="324" y="-99.8" font-family="Times,serif" font-size="14.00">PlaceTypesService</text>
</g>
<!-- PlaceTypesService&#45;&gt;PlaceTypesModule -->
<g id="edge2" class="edge">
<title>PlaceTypesService&#45;&gt;PlaceTypesModule</title>
<path fill="none" stroke="black" d="M269.27,-117.78C269.27,-117.78 269.27,-140.55 269.27,-140.55"/>
<polygon fill="black" stroke="black" points="265.77,-140.55 269.27,-150.55 272.77,-140.55 265.77,-140.55"/>
</g>
</g>
</svg>
