<?xml version="1.0" encoding="UTF-8" standalone="no"?>
<!DOCTYPE svg PUBLIC "-//W3C//DTD SVG 1.1//EN"
 "http://www.w3.org/Graphics/SVG/1.1/DTD/svg11.dtd">
<!-- Generated by graphviz version 2.47.0 (20210316.0004)
 -->
<!-- Title: dependencies Pages: 1 -->
<svg width="1699pt" height="211pt"
 viewBox="0.00 0.00 1699.00 211.00" xmlns="http://www.w3.org/2000/svg" xmlns:xlink="http://www.w3.org/1999/xlink">
<g id="graph0" class="graph" transform="scale(1 1) rotate(0) translate(4 207)">
<title>dependencies</title>
<polygon fill="white" stroke="transparent" points="-4,4 -4,-207 1695,-207 1695,4 -4,4"/>
<text text-anchor="start" x="824.51" y="-42.4" font-family="Times-12" font-weight="bold" font-size="14.00">Legend</text>
<polygon fill="#ffffb3" stroke="transparent" points="611.5,-10 611.5,-30 631.5,-30 631.5,-10 611.5,-10"/>
<text text-anchor="start" x="635.13" y="-15.4" font-family="Times-12" font-size="14.00"> &#160;Declarations</text>
<polygon fill="#8dd3c7" stroke="transparent" points="724.5,-10 724.5,-30 744.5,-30 744.5,-10 724.5,-10"/>
<text text-anchor="start" x="748.23" y="-15.4" font-family="Times-12" font-size="14.00"> &#160;Module</text>
<polygon fill="#80b1d3" stroke="transparent" points="810.5,-10 810.5,-30 830.5,-30 830.5,-10 810.5,-10"/>
<text text-anchor="start" x="834.28" y="-15.4" font-family="Times-12" font-size="14.00"> &#160;Bootstrap</text>
<polygon fill="#fdb462" stroke="transparent" points="907.5,-10 907.5,-30 927.5,-30 927.5,-10 907.5,-10"/>
<text text-anchor="start" x="931.17" y="-15.4" font-family="Times-12" font-size="14.00"> &#160;Providers</text>
<polygon fill="#fb8072" stroke="transparent" points="1003.5,-10 1003.5,-30 1023.5,-30 1023.5,-10 1003.5,-10"/>
<text text-anchor="start" x="1027.23" y="-15.4" font-family="Times-12" font-size="14.00"> &#160;Exports</text>
<g id="clust1" class="cluster">
<title>cluster_AppModule</title>
<polygon fill="none" stroke="black" stroke-dasharray="1,5" points="8,-70 8,-195 1683,-195 1683,-70 8,-70"/>
</g>
<g id="clust3" class="cluster">
<title>cluster_AppModule_imports</title>
<polygon fill="none" stroke="black" points="16,-78 16,-130 1675,-130 1675,-78 16,-78"/>
</g>
<!-- AuthModule -->
<g id="node1" class="node">
<title>AuthModule</title>
<polygon fill="#8dd3c7" stroke="black" points="1666.55,-122 1663.55,-126 1642.55,-126 1639.55,-122 1579.45,-122 1579.45,-86 1666.55,-86 1666.55,-122"/>
<text text-anchor="middle" x="1623" y="-99.8" font-family="Times,serif" font-size="14.00">AuthModule</text>
</g>
<!-- AppModule -->
<g id="node14" class="node">
<title>AppModule</title>
<polygon fill="#8dd3c7" stroke="black" points="882.66,-187 879.66,-191 858.66,-191 855.66,-187 799.34,-187 799.34,-151 882.66,-151 882.66,-187"/>
<text text-anchor="middle" x="841" y="-164.8" font-family="Times,serif" font-size="14.00">AppModule</text>
</g>
<!-- AuthModule&#45;&gt;AppModule -->
<g id="edge1" class="edge">
<title>AuthModule&#45;&gt;AppModule</title>
<path fill="none" stroke="black" d="M1623,-122.09C1623,-145.13 1623,-182 1623,-182 1623,-182 892.77,-182 892.77,-182"/>
<polygon fill="black" stroke="black" points="892.77,-178.5 882.77,-182 892.77,-185.5 892.77,-178.5"/>
</g>
<!-- CommentsModule -->
<g id="node2" class="node">
<title>CommentsModule</title>
<polygon fill="#8dd3c7" stroke="black" points="1561.22,-122 1558.22,-126 1537.22,-126 1534.22,-122 1440.78,-122 1440.78,-86 1561.22,-86 1561.22,-122"/>
<text text-anchor="middle" x="1501" y="-99.8" font-family="Times,serif" font-size="14.00">CommentsModule</text>
</g>
<!-- CommentsModule&#45;&gt;AppModule -->
<g id="edge2" class="edge">
<title>CommentsModule&#45;&gt;AppModule</title>
<path fill="none" stroke="black" d="M1501,-122.04C1501,-143.66 1501,-177 1501,-177 1501,-177 892.79,-177 892.79,-177"/>
<polygon fill="black" stroke="black" points="892.79,-173.5 882.79,-177 892.79,-180.5 892.79,-173.5"/>
</g>
<!-- DatabaseModule -->
<g id="node3" class="node">
<title>DatabaseModule</title>
<polygon fill="#8dd3c7" stroke="black" points="1422.35,-122 1419.35,-126 1398.35,-126 1395.35,-122 1311.65,-122 1311.65,-86 1422.35,-86 1422.35,-122"/>
<text text-anchor="middle" x="1367" y="-99.8" font-family="Times,serif" font-size="14.00">DatabaseModule</text>
</g>
<!-- DatabaseModule&#45;&gt;AppModule -->
<g id="edge3" class="edge">
<title>DatabaseModule&#45;&gt;AppModule</title>
<path fill="none" stroke="black" d="M1367,-122.22C1367,-142.37 1367,-172 1367,-172 1367,-172 892.71,-172 892.71,-172"/>
<polygon fill="black" stroke="black" points="892.71,-168.5 882.71,-172 892.71,-175.5 892.71,-168.5"/>
</g>
<!-- ImagesModule -->
<g id="node4" class="node">
<title>ImagesModule</title>
<polygon fill="#8dd3c7" stroke="black" points="1293.97,-122 1290.97,-126 1269.97,-126 1266.97,-122 1194.03,-122 1194.03,-86 1293.97,-86 1293.97,-122"/>
<text text-anchor="middle" x="1244" y="-99.8" font-family="Times,serif" font-size="14.00">ImagesModule</text>
</g>
<!-- ImagesModule&#45;&gt;AppModule -->
<g id="edge4" class="edge">
<title>ImagesModule&#45;&gt;AppModule</title>
<path fill="none" stroke="black" d="M1244,-122.22C1244,-140.83 1244,-167 1244,-167 1244,-167 892.99,-167 892.99,-167"/>
<polygon fill="black" stroke="black" points="892.99,-163.5 882.99,-167 892.99,-170.5 892.99,-163.5"/>
</g>
<!-- LanguagesModule -->
<g id="node5" class="node">
<title>LanguagesModule</title>
<polygon fill="#8dd3c7" stroke="black" points="1176.19,-122 1173.19,-126 1152.19,-126 1149.19,-122 1055.81,-122 1055.81,-86 1176.19,-86 1176.19,-122"/>
<text text-anchor="middle" x="1116" y="-99.8" font-family="Times,serif" font-size="14.00">LanguagesModule</text>
</g>
<!-- LanguagesModule&#45;&gt;AppModule -->
<g id="edge5" class="edge">
<title>LanguagesModule&#45;&gt;AppModule</title>
<path fill="none" stroke="black" d="M1116,-122.03C1116,-139.06 1116,-162 1116,-162 1116,-162 892.77,-162 892.77,-162"/>
<polygon fill="black" stroke="black" points="892.77,-158.5 882.77,-162 892.77,-165.5 892.77,-158.5"/>
</g>
<!-- MailingModule -->
<g id="node6" class="node">
<title>MailingModule</title>
<polygon fill="#8dd3c7" stroke="black" points="1037.88,-122 1034.88,-126 1013.88,-126 1010.88,-122 934.12,-122 934.12,-86 1037.88,-86 1037.88,-122"/>
<text text-anchor="middle" x="986" y="-99.8" font-family="Times,serif" font-size="14.00">MailingModule</text>
</g>
<!-- MailingModule&#45;&gt;AppModule -->
<g id="edge6" class="edge">
<title>MailingModule&#45;&gt;AppModule</title>
<path fill="none" stroke="black" d="M986,-122.24C986,-137.57 986,-157 986,-157 986,-157 892.94,-157 892.94,-157"/>
<polygon fill="black" stroke="black" points="892.94,-153.5 882.94,-157 892.94,-160.5 892.94,-153.5"/>
</g>
<!-- PlaceCategoriesModule -->
<g id="node7" class="node">
<title>PlaceCategoriesModule</title>
<polygon fill="#8dd3c7" stroke="black" points="915.73,-122 912.73,-126 891.73,-126 888.73,-122 766.27,-122 766.27,-86 915.73,-86 915.73,-122"/>
<text text-anchor="middle" x="841" y="-99.8" font-family="Times,serif" font-size="14.00">PlaceCategoriesModule</text>
</g>
<!-- PlaceCategoriesModule&#45;&gt;AppModule -->
<g id="edge7" class="edge">
<title>PlaceCategoriesModule&#45;&gt;AppModule</title>
<path fill="none" stroke="black" d="M841,-122.11C841,-122.11 841,-140.99 841,-140.99"/>
<polygon fill="black" stroke="black" points="837.5,-140.99 841,-150.99 844.5,-140.99 837.5,-140.99"/>
</g>
<!-- PlaceTypesModule -->
<g id="node8" class="node">
<title>PlaceTypesModule</title>
<polygon fill="#8dd3c7" stroke="black" points="748.08,-122 745.08,-126 724.08,-126 721.08,-122 623.92,-122 623.92,-86 748.08,-86 748.08,-122"/>
<text text-anchor="middle" x="686" y="-99.8" font-family="Times,serif" font-size="14.00">PlaceTypesModule</text>
</g>
<!-- PlaceTypesModule&#45;&gt;AppModule -->
<g id="edge8" class="edge">
<title>PlaceTypesModule&#45;&gt;AppModule</title>
<path fill="none" stroke="black" d="M686,-122.24C686,-137.57 686,-157 686,-157 686,-157 789.05,-157 789.05,-157"/>
<polygon fill="black" stroke="black" points="789.05,-160.5 799.05,-157 789.05,-153.5 789.05,-160.5"/>
</g>
<!-- PlacesModule -->
<g id="node9" class="node">
<title>PlacesModule</title>
<polygon fill="#8dd3c7" stroke="black" points="605.81,-122 602.81,-126 581.81,-126 578.81,-122 510.19,-122 510.19,-86 605.81,-86 605.81,-122"/>
<text text-anchor="middle" x="558" y="-99.8" font-family="Times,serif" font-size="14.00">PlacesModule</text>
</g>
<!-- PlacesModule&#45;&gt;AppModule -->
<g id="edge9" class="edge">
<title>PlacesModule&#45;&gt;AppModule</title>
<path fill="none" stroke="black" d="M558,-122.03C558,-139.06 558,-162 558,-162 558,-162 789.24,-162 789.24,-162"/>
<polygon fill="black" stroke="black" points="789.24,-165.5 799.24,-162 789.24,-158.5 789.24,-165.5"/>
</g>
<!-- RolesModule -->
<g id="node10" class="node">
<title>RolesModule</title>
<polygon fill="#8dd3c7" stroke="black" points="492.94,-122 489.94,-126 468.94,-126 465.94,-122 401.06,-122 401.06,-86 492.94,-86 492.94,-122"/>
<text text-anchor="middle" x="447" y="-99.8" font-family="Times,serif" font-size="14.00">RolesModule</text>
</g>
<!-- RolesModule&#45;&gt;AppModule -->
<g id="edge10" class="edge">
<title>RolesModule&#45;&gt;AppModule</title>
<path fill="none" stroke="black" d="M447,-122.22C447,-140.83 447,-167 447,-167 447,-167 789.21,-167 789.21,-167"/>
<polygon fill="black" stroke="black" points="789.21,-170.5 799.21,-167 789.21,-163.5 789.21,-170.5"/>
</g>
<!-- StorageModule -->
<g id="node11" class="node">
<title>StorageModule</title>
<polygon fill="#8dd3c7" stroke="black" points="383.31,-122 380.31,-126 359.31,-126 356.31,-122 280.69,-122 280.69,-86 383.31,-86 383.31,-122"/>
<text text-anchor="middle" x="332" y="-99.8" font-family="Times,serif" font-size="14.00">StorageModule</text>
</g>
<!-- StorageModule&#45;&gt;AppModule -->
<g id="edge11" class="edge">
<title>StorageModule&#45;&gt;AppModule</title>
<path fill="none" stroke="black" d="M332,-122.22C332,-142.37 332,-172 332,-172 332,-172 788.91,-172 788.91,-172"/>
<polygon fill="black" stroke="black" points="788.91,-175.5 798.91,-172 788.91,-168.5 788.91,-175.5"/>
</g>
<!-- TranslationsModule -->
<g id="node12" class="node">
<title>TranslationsModule</title>
<polygon fill="#8dd3c7" stroke="black" points="262.25,-122 259.25,-126 238.25,-126 235.25,-122 133.75,-122 133.75,-86 262.25,-86 262.25,-122"/>
<text text-anchor="middle" x="198" y="-99.8" font-family="Times,serif" font-size="14.00">TranslationsModule</text>
</g>
<!-- TranslationsModule&#45;&gt;AppModule -->
<g id="edge12" class="edge">
<title>TranslationsModule&#45;&gt;AppModule</title>
<path fill="none" stroke="black" d="M198,-122.04C198,-143.66 198,-177 198,-177 198,-177 789.31,-177 789.31,-177"/>
<polygon fill="black" stroke="black" points="789.31,-180.5 799.31,-177 789.31,-173.5 789.31,-180.5"/>
</g>
<!-- UsersModule -->
<g id="node13" class="node">
<title>UsersModule</title>
<polygon fill="#8dd3c7" stroke="black" points="115.92,-122 112.92,-126 91.92,-126 88.92,-122 24.08,-122 24.08,-86 115.92,-86 115.92,-122"/>
<text text-anchor="middle" x="70" y="-99.8" font-family="Times,serif" font-size="14.00">UsersModule</text>
</g>
<!-- UsersModule&#45;&gt;AppModule -->
<g id="edge13" class="edge">
<title>UsersModule&#45;&gt;AppModule</title>
<path fill="none" stroke="black" d="M70,-122.09C70,-145.13 70,-182 70,-182 70,-182 789.27,-182 789.27,-182"/>
<polygon fill="black" stroke="black" points="789.27,-185.5 799.27,-182 789.27,-178.5 789.27,-185.5"/>
</g>
</g>
</svg>
