<?xml version="1.0" encoding="UTF-8" standalone="no"?>
<!DOCTYPE svg PUBLIC "-//W3C//DTD SVG 1.1//EN"
 "http://www.w3.org/Graphics/SVG/1.1/DTD/svg11.dtd">
<!-- Generated by graphviz version 2.47.0 (20210316.0004)
 -->
<!-- Title: dependencies Pages: 1 -->
<svg width="4736pt" height="352pt"
 viewBox="0.00 0.00 4736.00 352.00" xmlns="http://www.w3.org/2000/svg" xmlns:xlink="http://www.w3.org/1999/xlink">
<g id="graph0" class="graph" transform="scale(1 1) rotate(0) translate(4 348)">
<title>dependencies</title>
<polygon fill="white" stroke="transparent" points="-4,4 -4,-348 4732,-348 4732,4 -4,4"/>
<text text-anchor="start" x="2343.01" y="-42.4" font-family="Times-12" font-weight="bold" font-size="14.00">Legend</text>
<polygon fill="#ffffb3" stroke="transparent" points="2130,-10 2130,-30 2150,-30 2150,-10 2130,-10"/>
<text text-anchor="start" x="2153.63" y="-15.4" font-family="Times-12" font-size="14.00"> &#160;Declarations</text>
<polygon fill="#8dd3c7" stroke="transparent" points="2243,-10 2243,-30 2263,-30 2263,-10 2243,-10"/>
<text text-anchor="start" x="2266.73" y="-15.4" font-family="Times-12" font-size="14.00"> &#160;Module</text>
<polygon fill="#80b1d3" stroke="transparent" points="2329,-10 2329,-30 2349,-30 2349,-10 2329,-10"/>
<text text-anchor="start" x="2352.78" y="-15.4" font-family="Times-12" font-size="14.00"> &#160;Bootstrap</text>
<polygon fill="#fdb462" stroke="transparent" points="2426,-10 2426,-30 2446,-30 2446,-10 2426,-10"/>
<text text-anchor="start" x="2449.67" y="-15.4" font-family="Times-12" font-size="14.00"> &#160;Providers</text>
<polygon fill="#fb8072" stroke="transparent" points="2522,-10 2522,-30 2542,-30 2542,-10 2522,-10"/>
<text text-anchor="start" x="2545.73" y="-15.4" font-family="Times-12" font-size="14.00"> &#160;Exports</text>
<g id="clust1" class="cluster">
<title>cluster_AppModule</title>
<polygon fill="none" stroke="black" stroke-dasharray="1,5" points="1624,-70 1624,-336 2344,-336 2344,-70 1624,-70"/>
</g>
<g id="clust3" class="cluster">
<title>cluster_AppModule_imports</title>
<polygon fill="none" stroke="black" points="1704,-78 1704,-271 2336,-271 2336,-78 1704,-78"/>
</g>
<g id="clust7" class="cluster">
<title>cluster_AuthModule</title>
<polygon fill="none" stroke="black" stroke-dasharray="1,5" points="3290,-135 3290,-203 4096,-203 4096,-135 3290,-135"/>
</g>
<g id="clust10" class="cluster">
<title>cluster_AuthModule_exports</title>
<polygon fill="none" stroke="black" points="3870,-143 3870,-195 4088,-195 4088,-143 3870,-143"/>
</g>
<g id="clust12" class="cluster">
<title>cluster_AuthModule_providers</title>
<polygon fill="none" stroke="black" points="3298,-143 3298,-195 3862,-195 3862,-143 3298,-143"/>
</g>
<g id="clust13" class="cluster">
<title>cluster_CommentsModule</title>
<polygon fill="none" stroke="black" stroke-dasharray="1,5" points="8,-211 8,-279 350,-279 350,-211 8,-211"/>
</g>
<g id="clust16" class="cluster">
<title>cluster_CommentsModule_exports</title>
<polygon fill="none" stroke="black" points="204,-219 204,-271 342,-271 342,-219 204,-219"/>
</g>
<g id="clust18" class="cluster">
<title>cluster_CommentsModule_providers</title>
<polygon fill="none" stroke="black" points="16,-219 16,-271 196,-271 196,-219 16,-219"/>
</g>
<g id="clust25" class="cluster">
<title>cluster_ImagesModule</title>
<polygon fill="none" stroke="black" stroke-dasharray="1,5" points="358,-211 358,-279 652,-279 652,-211 358,-211"/>
</g>
<g id="clust28" class="cluster">
<title>cluster_ImagesModule_exports</title>
<polygon fill="none" stroke="black" points="526,-219 526,-271 644,-271 644,-219 526,-219"/>
</g>
<g id="clust30" class="cluster">
<title>cluster_ImagesModule_providers</title>
<polygon fill="none" stroke="black" points="366,-219 366,-271 518,-271 518,-219 366,-219"/>
</g>
<g id="clust31" class="cluster">
<title>cluster_LanguagesModule</title>
<polygon fill="none" stroke="black" stroke-dasharray="1,5" points="2352,-135 2352,-203 2694,-203 2694,-135 2352,-135"/>
</g>
<g id="clust34" class="cluster">
<title>cluster_LanguagesModule_exports</title>
<polygon fill="none" stroke="black" points="2548,-143 2548,-195 2686,-195 2686,-143 2548,-143"/>
</g>
<g id="clust36" class="cluster">
<title>cluster_LanguagesModule_providers</title>
<polygon fill="none" stroke="black" points="2360,-143 2360,-195 2540,-195 2540,-143 2360,-143"/>
</g>
<g id="clust37" class="cluster">
<title>cluster_MailingModule</title>
<polygon fill="none" stroke="black" stroke-dasharray="1,5" points="660,-211 660,-279 964,-279 964,-211 660,-211"/>
</g>
<g id="clust40" class="cluster">
<title>cluster_MailingModule_exports</title>
<polygon fill="none" stroke="black" points="834,-219 834,-271 956,-271 956,-219 834,-219"/>
</g>
<g id="clust42" class="cluster">
<title>cluster_MailingModule_providers</title>
<polygon fill="none" stroke="black" points="668,-219 668,-271 826,-271 826,-219 668,-219"/>
</g>
<g id="clust43" class="cluster">
<title>cluster_PlaceCategoriesModule</title>
<polygon fill="none" stroke="black" stroke-dasharray="1,5" points="4104,-135 4104,-203 4340,-203 4340,-135 4104,-135"/>
</g>
<g id="clust48" class="cluster">
<title>cluster_PlaceCategoriesModule_providers</title>
<polygon fill="none" stroke="black" points="4112,-143 4112,-195 4332,-195 4332,-143 4112,-143"/>
</g>
<g id="clust49" class="cluster">
<title>cluster_PlacesModule</title>
<polygon fill="none" stroke="black" stroke-dasharray="1,5" points="4348,-135 4348,-203 4510,-203 4510,-135 4348,-135"/>
</g>
<g id="clust54" class="cluster">
<title>cluster_PlacesModule_providers</title>
<polygon fill="none" stroke="black" points="4356,-143 4356,-195 4502,-195 4502,-143 4356,-143"/>
</g>
<g id="clust55" class="cluster">
<title>cluster_PlaceTypesModule</title>
<polygon fill="none" stroke="black" stroke-dasharray="1,5" points="4518,-135 4518,-203 4720,-203 4720,-135 4518,-135"/>
</g>
<g id="clust60" class="cluster">
<title>cluster_PlaceTypesModule_providers</title>
<polygon fill="none" stroke="black" points="4526,-143 4526,-195 4712,-195 4712,-143 4526,-143"/>
</g>
<g id="clust61" class="cluster">
<title>cluster_RolesModule</title>
<polygon fill="none" stroke="black" stroke-dasharray="1,5" points="2702,-135 2702,-203 2976,-203 2976,-135 2702,-135"/>
</g>
<g id="clust64" class="cluster">
<title>cluster_RolesModule_exports</title>
<polygon fill="none" stroke="black" points="2858,-143 2858,-195 2968,-195 2968,-143 2858,-143"/>
</g>
<g id="clust66" class="cluster">
<title>cluster_RolesModule_providers</title>
<polygon fill="none" stroke="black" points="2710,-143 2710,-195 2850,-195 2850,-143 2710,-143"/>
</g>
<g id="clust67" class="cluster">
<title>cluster_StorageModule</title>
<polygon fill="none" stroke="black" stroke-dasharray="1,5" points="2984,-135 2984,-203 3282,-203 3282,-135 2984,-135"/>
</g>
<g id="clust70" class="cluster">
<title>cluster_StorageModule_exports</title>
<polygon fill="none" stroke="black" points="3154,-143 3154,-195 3274,-195 3274,-143 3154,-143"/>
</g>
<g id="clust72" class="cluster">
<title>cluster_StorageModule_providers</title>
<polygon fill="none" stroke="black" points="2992,-143 2992,-195 3146,-195 3146,-143 2992,-143"/>
</g>
<g id="clust73" class="cluster">
<title>cluster_TranslationsModule</title>
<polygon fill="none" stroke="black" stroke-dasharray="1,5" points="972,-211 972,-279 1334,-279 1334,-211 972,-211"/>
</g>
<g id="clust76" class="cluster">
<title>cluster_TranslationsModule_exports</title>
<polygon fill="none" stroke="black" points="1180,-219 1180,-271 1326,-271 1326,-219 1180,-219"/>
</g>
<g id="clust78" class="cluster">
<title>cluster_TranslationsModule_providers</title>
<polygon fill="none" stroke="black" points="980,-219 980,-271 1172,-271 1172,-219 980,-219"/>
</g>
<g id="clust79" class="cluster">
<title>cluster_UsersModule</title>
<polygon fill="none" stroke="black" stroke-dasharray="1,5" points="1342,-211 1342,-279 1616,-279 1616,-211 1342,-211"/>
</g>
<g id="clust82" class="cluster">
<title>cluster_UsersModule_exports</title>
<polygon fill="none" stroke="black" points="1498,-219 1498,-271 1608,-271 1608,-219 1498,-219"/>
</g>
<g id="clust84" class="cluster">
<title>cluster_UsersModule_providers</title>
<polygon fill="none" stroke="black" points="1350,-219 1350,-271 1490,-271 1490,-219 1350,-219"/>
</g>
<!-- AuthModule -->
<g id="node1" class="node">
<title>AuthModule</title>
<polygon fill="#8dd3c7" stroke="black" points="2017.55,-263 2014.55,-267 1993.55,-267 1990.55,-263 1930.45,-263 1930.45,-227 2017.55,-227 2017.55,-263"/>
<text text-anchor="middle" x="1974" y="-240.8" font-family="Times,serif" font-size="14.00">AuthModule</text>
</g>
<!-- AppModule -->
<g id="node14" class="node">
<title>AppModule</title>
<polygon fill="#8dd3c7" stroke="black" points="1799.66,-328 1796.66,-332 1775.66,-332 1772.66,-328 1716.34,-328 1716.34,-292 1799.66,-292 1799.66,-328"/>
<text text-anchor="middle" x="1758" y="-305.8" font-family="Times,serif" font-size="14.00">AppModule</text>
</g>
<!-- AuthModule&#45;&gt;AppModule -->
<g id="edge1" class="edge">
<title>AuthModule&#45;&gt;AppModule</title>
<path fill="none" stroke="black" d="M1974,-263.01C1974,-279.05 1974,-300 1974,-300 1974,-300 1809.9,-300 1809.9,-300"/>
<polygon fill="black" stroke="black" points="1809.9,-296.5 1799.9,-300 1809.9,-303.5 1809.9,-296.5"/>
</g>
<!-- AuthService  -->
<g id="node15" class="node">
<title>AuthService </title>
<polygon fill="#fb8072" stroke="black" points="4079.98,-187 3990.02,-187 3990.02,-151 4079.98,-151 4079.98,-187"/>
<text text-anchor="middle" x="4035" y="-164.8" font-family="Times,serif" font-size="14.00">AuthService </text>
</g>
<!-- AuthModule&#45;&gt;AuthService  -->
<g id="edge16" class="edge">
<title>AuthModule&#45;&gt;AuthService </title>
<path fill="none" stroke="black" stroke-dasharray="5,2" d="M1992.92,-226.83C1992.92,-224.55 1992.92,-223 1992.92,-223 1992.92,-223 4035,-223 4035,-223 4035,-223 4035,-197.28 4035,-197.28"/>
<polygon fill="black" stroke="black" points="4038.5,-197.28 4035,-187.28 4031.5,-197.28 4038.5,-197.28"/>
</g>
<!-- UsersModule  -->
<g id="node16" class="node">
<title>UsersModule </title>
<polygon fill="#fb8072" stroke="black" points="3972.42,-187 3877.58,-187 3877.58,-151 3972.42,-151 3972.42,-187"/>
<text text-anchor="middle" x="3925" y="-164.8" font-family="Times,serif" font-size="14.00">UsersModule </text>
</g>
<!-- AuthModule&#45;&gt;UsersModule  -->
<g id="edge17" class="edge">
<title>AuthModule&#45;&gt;UsersModule </title>
<path fill="none" stroke="black" stroke-dasharray="5,2" d="M1987.95,-226.81C1987.95,-223.46 1987.95,-221 1987.95,-221 1987.95,-221 3925,-221 3925,-221 3925,-221 3925,-197.19 3925,-197.19"/>
<polygon fill="black" stroke="black" points="3928.5,-197.19 3925,-187.19 3921.5,-197.19 3928.5,-197.19"/>
</g>
<!-- CommentsModule -->
<g id="node2" class="node">
<title>CommentsModule</title>
<polygon fill="#8dd3c7" stroke="black" points="1832.22,-187 1829.22,-191 1808.22,-191 1805.22,-187 1711.78,-187 1711.78,-151 1832.22,-151 1832.22,-187"/>
<text text-anchor="middle" x="1772" y="-164.8" font-family="Times,serif" font-size="14.00">CommentsModule</text>
</g>
<!-- PlacesModule -->
<g id="node9" class="node">
<title>PlacesModule</title>
<polygon fill="#8dd3c7" stroke="black" points="1912.81,-263 1909.81,-267 1888.81,-267 1885.81,-263 1817.19,-263 1817.19,-227 1912.81,-227 1912.81,-263"/>
<text text-anchor="middle" x="1865" y="-240.8" font-family="Times,serif" font-size="14.00">PlacesModule</text>
</g>
<!-- CommentsModule&#45;&gt;PlacesModule -->
<g id="edge32" class="edge">
<title>CommentsModule&#45;&gt;PlacesModule</title>
<path fill="none" stroke="black" d="M1824.73,-187.01C1824.73,-187.01 1824.73,-216.85 1824.73,-216.85"/>
<polygon fill="black" stroke="black" points="1821.23,-216.85 1824.73,-226.85 1828.23,-216.85 1821.23,-216.85"/>
</g>
<!-- CommentsModule&#45;&gt;AppModule -->
<g id="edge2" class="edge">
<title>CommentsModule&#45;&gt;AppModule</title>
<path fill="none" stroke="black" d="M1732.9,-187.14C1732.9,-187.14 1732.9,-281.93 1732.9,-281.93"/>
<polygon fill="black" stroke="black" points="1729.4,-281.92 1732.9,-291.93 1736.4,-281.93 1729.4,-281.92"/>
</g>
<!-- CommentsService  -->
<g id="node20" class="node">
<title>CommentsService </title>
<polygon fill="#fb8072" stroke="black" points="334.15,-263 211.85,-263 211.85,-227 334.15,-227 334.15,-263"/>
<text text-anchor="middle" x="273" y="-240.8" font-family="Times,serif" font-size="14.00">CommentsService </text>
</g>
<!-- CommentsModule&#45;&gt;CommentsService  -->
<g id="edge21" class="edge">
<title>CommentsModule&#45;&gt;CommentsService </title>
<path fill="none" stroke="black" stroke-dasharray="5,2" d="M1711.85,-175C1432.23,-175 273,-175 273,-175 273,-175 273,-216.97 273,-216.97"/>
<polygon fill="black" stroke="black" points="269.5,-216.97 273,-226.97 276.5,-216.97 269.5,-216.97"/>
</g>
<!-- DatabaseModule -->
<g id="node3" class="node">
<title>DatabaseModule</title>
<polygon fill="#8dd3c7" stroke="black" points="1822.35,-122 1819.35,-126 1798.35,-126 1795.35,-122 1711.65,-122 1711.65,-86 1822.35,-86 1822.35,-122"/>
<text text-anchor="middle" x="1767" y="-99.8" font-family="Times,serif" font-size="14.00">DatabaseModule</text>
</g>
<!-- DatabaseModule&#45;&gt;AppModule -->
<g id="edge3" class="edge">
<title>DatabaseModule&#45;&gt;AppModule</title>
<path fill="none" stroke="black" d="M1711.64,-104C1683.69,-104 1655.62,-104 1655.62,-104 1655.62,-104 1655.62,-310 1655.62,-310 1655.62,-310 1706.06,-310 1706.06,-310"/>
<polygon fill="black" stroke="black" points="1706.06,-313.5 1716.06,-310 1706.06,-306.5 1706.06,-313.5"/>
</g>
<!-- ImagesModule -->
<g id="node4" class="node">
<title>ImagesModule</title>
<polygon fill="#8dd3c7" stroke="black" points="1949.97,-187 1946.97,-191 1925.97,-191 1922.97,-187 1850.03,-187 1850.03,-151 1949.97,-151 1949.97,-187"/>
<text text-anchor="middle" x="1900" y="-164.8" font-family="Times,serif" font-size="14.00">ImagesModule</text>
</g>
<!-- ImagesModule&#45;&gt;PlacesModule -->
<g id="edge33" class="edge">
<title>ImagesModule&#45;&gt;PlacesModule</title>
<path fill="none" stroke="black" d="M1881.33,-187.01C1881.33,-187.01 1881.33,-216.85 1881.33,-216.85"/>
<polygon fill="black" stroke="black" points="1877.83,-216.85 1881.33,-226.85 1884.83,-216.85 1877.83,-216.85"/>
</g>
<!-- ImagesModule&#45;&gt;AppModule -->
<g id="edge4" class="edge">
<title>ImagesModule&#45;&gt;AppModule</title>
<path fill="none" stroke="black" d="M1921.44,-187.2C1921.44,-222.31 1921.44,-296 1921.44,-296 1921.44,-296 1809.67,-296 1809.67,-296"/>
<polygon fill="black" stroke="black" points="1809.67,-292.5 1799.67,-296 1809.67,-299.5 1809.67,-292.5"/>
</g>
<!-- ImagesService  -->
<g id="node22" class="node">
<title>ImagesService </title>
<polygon fill="#fb8072" stroke="black" points="635.9,-263 534.1,-263 534.1,-227 635.9,-227 635.9,-263"/>
<text text-anchor="middle" x="585" y="-240.8" font-family="Times,serif" font-size="14.00">ImagesService </text>
</g>
<!-- ImagesModule&#45;&gt;ImagesService  -->
<g id="edge24" class="edge">
<title>ImagesModule&#45;&gt;ImagesService </title>
<path fill="none" stroke="black" stroke-dasharray="5,2" d="M1870.89,-187.17C1870.89,-189.45 1870.89,-191 1870.89,-191 1870.89,-191 585,-191 585,-191 585,-191 585,-216.72 585,-216.72"/>
<polygon fill="black" stroke="black" points="581.5,-216.72 585,-226.72 588.5,-216.72 581.5,-216.72"/>
</g>
<!-- LanguagesModule -->
<g id="node5" class="node">
<title>LanguagesModule</title>
<polygon fill="#8dd3c7" stroke="black" points="2098.19,-122 2095.19,-126 2074.19,-126 2071.19,-122 1977.81,-122 1977.81,-86 2098.19,-86 2098.19,-122"/>
<text text-anchor="middle" x="2038" y="-99.8" font-family="Times,serif" font-size="14.00">LanguagesModule</text>
</g>
<!-- TranslationsModule -->
<g id="node12" class="node">
<title>TranslationsModule</title>
<polygon fill="#8dd3c7" stroke="black" points="2328.25,-187 2325.25,-191 2304.25,-191 2301.25,-187 2199.75,-187 2199.75,-151 2328.25,-151 2328.25,-187"/>
<text text-anchor="middle" x="2264" y="-164.8" font-family="Times,serif" font-size="14.00">TranslationsModule</text>
</g>
<!-- LanguagesModule&#45;&gt;TranslationsModule -->
<g id="edge42" class="edge">
<title>LanguagesModule&#45;&gt;TranslationsModule</title>
<path fill="none" stroke="black" d="M2095.49,-122.49C2095.49,-134.14 2095.49,-147 2095.49,-147 2095.49,-147 2203.67,-147 2203.67,-147 2203.67,-147 2203.67,-147.38 2203.67,-147.38"/>
<polygon fill="black" stroke="black" points="2200.17,-140.83 2203.67,-150.83 2207.17,-140.83 2200.17,-140.83"/>
</g>
<!-- LanguagesModule&#45;&gt;AppModule -->
<g id="edge5" class="edge">
<title>LanguagesModule&#45;&gt;AppModule</title>
<path fill="none" stroke="black" d="M2084.17,-122.06C2084.17,-151.11 2084.17,-205 2084.17,-205 2084.17,-205 1749.63,-205 1749.63,-205 1749.63,-205 1749.63,-281.71 1749.63,-281.71"/>
<polygon fill="black" stroke="black" points="1746.13,-281.71 1749.63,-291.71 1753.13,-281.71 1746.13,-281.71"/>
</g>
<!-- LanguagesService  -->
<g id="node24" class="node">
<title>LanguagesService </title>
<polygon fill="#fb8072" stroke="black" points="2678.12,-187 2555.88,-187 2555.88,-151 2678.12,-151 2678.12,-187"/>
<text text-anchor="middle" x="2617" y="-164.8" font-family="Times,serif" font-size="14.00">LanguagesService </text>
</g>
<!-- LanguagesModule&#45;&gt;LanguagesService  -->
<g id="edge26" class="edge">
<title>LanguagesModule&#45;&gt;LanguagesService </title>
<path fill="none" stroke="black" stroke-dasharray="5,2" d="M2078.06,-122.03C2078.06,-128.85 2078.06,-135 2078.06,-135 2078.06,-135 2617,-135 2617,-135 2617,-135 2617,-140.81 2617,-140.81"/>
<polygon fill="black" stroke="black" points="2613.5,-140.81 2617,-150.81 2620.5,-140.81 2613.5,-140.81"/>
</g>
<!-- MailingModule -->
<g id="node6" class="node">
<title>MailingModule</title>
<polygon fill="#8dd3c7" stroke="black" points="2071.88,-187 2068.88,-191 2047.88,-191 2044.88,-187 1968.12,-187 1968.12,-151 2071.88,-151 2071.88,-187"/>
<text text-anchor="middle" x="2020" y="-164.8" font-family="Times,serif" font-size="14.00">MailingModule</text>
</g>
<!-- MailingModule&#45;&gt;AuthModule -->
<g id="edge14" class="edge">
<title>MailingModule&#45;&gt;AuthModule</title>
<path fill="none" stroke="black" d="M1982.97,-187.01C1982.97,-187.01 1982.97,-216.85 1982.97,-216.85"/>
<polygon fill="black" stroke="black" points="1979.47,-216.85 1982.97,-226.85 1986.47,-216.85 1979.47,-216.85"/>
</g>
<!-- MailingModule&#45;&gt;AppModule -->
<g id="edge6" class="edge">
<title>MailingModule&#45;&gt;AppModule</title>
<path fill="none" stroke="black" d="M2026.95,-187.21C2026.95,-224.06 2026.95,-304 2026.95,-304 2026.95,-304 1809.73,-304 1809.73,-304"/>
<polygon fill="black" stroke="black" points="1809.73,-300.5 1799.73,-304 1809.73,-307.5 1809.73,-300.5"/>
</g>
<!-- MailingService  -->
<g id="node26" class="node">
<title>MailingService </title>
<polygon fill="#fb8072" stroke="black" points="947.81,-263 842.19,-263 842.19,-227 947.81,-227 947.81,-263"/>
<text text-anchor="middle" x="895" y="-240.8" font-family="Times,serif" font-size="14.00">MailingService </text>
</g>
<!-- MailingModule&#45;&gt;MailingService  -->
<g id="edge28" class="edge">
<title>MailingModule&#45;&gt;MailingService </title>
<path fill="none" stroke="black" stroke-dasharray="5,2" d="M1978,-187.06C1978,-191.49 1978,-195 1978,-195 1978,-195 895,-195 895,-195 895,-195 895,-216.95 895,-216.95"/>
<polygon fill="black" stroke="black" points="891.5,-216.95 895,-226.95 898.5,-216.95 891.5,-216.95"/>
</g>
<!-- PlaceCategoriesModule -->
<g id="node7" class="node">
<title>PlaceCategoriesModule</title>
<polygon fill="#8dd3c7" stroke="black" points="2185.73,-263 2182.73,-267 2161.73,-267 2158.73,-263 2036.27,-263 2036.27,-227 2185.73,-227 2185.73,-263"/>
<text text-anchor="middle" x="2111" y="-240.8" font-family="Times,serif" font-size="14.00">PlaceCategoriesModule</text>
</g>
<!-- PlaceCategoriesModule&#45;&gt;AppModule -->
<g id="edge7" class="edge">
<title>PlaceCategoriesModule&#45;&gt;AppModule</title>
<path fill="none" stroke="black" d="M2111,-263.22C2111,-281.83 2111,-308 2111,-308 2111,-308 1809.88,-308 1809.88,-308"/>
<polygon fill="black" stroke="black" points="1809.88,-304.5 1799.88,-308 1809.88,-311.5 1809.88,-304.5"/>
</g>
<!-- PlaceTypesModule -->
<g id="node8" class="node">
<title>PlaceTypesModule</title>
<polygon fill="#8dd3c7" stroke="black" points="2328.08,-263 2325.08,-267 2304.08,-267 2301.08,-263 2203.92,-263 2203.92,-227 2328.08,-227 2328.08,-263"/>
<text text-anchor="middle" x="2266" y="-240.8" font-family="Times,serif" font-size="14.00">PlaceTypesModule</text>
</g>
<!-- PlaceTypesModule&#45;&gt;AppModule -->
<g id="edge8" class="edge">
<title>PlaceTypesModule&#45;&gt;AppModule</title>
<path fill="none" stroke="black" d="M2266,-263.16C2266,-285.35 2266,-320 2266,-320 2266,-320 1810,-320 1810,-320"/>
<polygon fill="black" stroke="black" points="1810,-316.5 1800,-320 1810,-323.5 1810,-316.5"/>
</g>
<!-- PlacesModule&#45;&gt;AppModule -->
<g id="edge9" class="edge">
<title>PlacesModule&#45;&gt;AppModule</title>
<path fill="none" stroke="black" d="M1816.88,-245C1799.05,-245 1783.1,-245 1783.1,-245 1783.1,-245 1783.1,-281.89 1783.1,-281.89"/>
<polygon fill="black" stroke="black" points="1779.6,-281.89 1783.1,-291.89 1786.6,-281.89 1779.6,-281.89"/>
</g>
<!-- RolesModule -->
<g id="node10" class="node">
<title>RolesModule</title>
<polygon fill="#8dd3c7" stroke="black" points="2207.94,-122 2204.94,-126 2183.94,-126 2180.94,-122 2116.06,-122 2116.06,-86 2207.94,-86 2207.94,-122"/>
<text text-anchor="middle" x="2162" y="-99.8" font-family="Times,serif" font-size="14.00">RolesModule</text>
</g>
<!-- UsersModule -->
<g id="node13" class="node">
<title>UsersModule</title>
<polygon fill="#8dd3c7" stroke="black" points="2181.92,-187 2178.92,-191 2157.92,-191 2154.92,-187 2090.08,-187 2090.08,-151 2181.92,-151 2181.92,-187"/>
<text text-anchor="middle" x="2136" y="-164.8" font-family="Times,serif" font-size="14.00">UsersModule</text>
</g>
<!-- RolesModule&#45;&gt;UsersModule -->
<g id="edge45" class="edge">
<title>RolesModule&#45;&gt;UsersModule</title>
<path fill="none" stroke="black" d="M2138.09,-122.11C2138.09,-122.11 2138.09,-140.99 2138.09,-140.99"/>
<polygon fill="black" stroke="black" points="2134.59,-140.99 2138.09,-150.99 2141.59,-140.99 2134.59,-140.99"/>
</g>
<!-- RolesModule&#45;&gt;AppModule -->
<g id="edge10" class="edge">
<title>RolesModule&#45;&gt;AppModule</title>
<path fill="none" stroke="black" d="M2191.37,-122.09C2191.37,-172.7 2191.37,-312 2191.37,-312 2191.37,-312 1809.95,-312 1809.95,-312"/>
<polygon fill="black" stroke="black" points="1809.95,-308.5 1799.95,-312 1809.95,-315.5 1809.95,-308.5"/>
</g>
<!-- RolesService  -->
<g id="node31" class="node">
<title>RolesService </title>
<polygon fill="#fb8072" stroke="black" points="2959.86,-187 2866.14,-187 2866.14,-151 2959.86,-151 2959.86,-187"/>
<text text-anchor="middle" x="2913" y="-164.8" font-family="Times,serif" font-size="14.00">RolesService </text>
</g>
<!-- RolesModule&#45;&gt;RolesService  -->
<g id="edge38" class="edge">
<title>RolesModule&#45;&gt;RolesService </title>
<path fill="none" stroke="black" stroke-dasharray="5,2" d="M2159.9,-122.12C2159.9,-124.97 2159.9,-127 2159.9,-127 2159.9,-127 2913,-127 2913,-127 2913,-127 2913,-140.94 2913,-140.94"/>
<polygon fill="black" stroke="black" points="2909.5,-140.94 2913,-150.94 2916.5,-140.94 2909.5,-140.94"/>
</g>
<!-- StorageModule -->
<g id="node11" class="node">
<title>StorageModule</title>
<polygon fill="#8dd3c7" stroke="black" points="2328.31,-122 2325.31,-126 2304.31,-126 2301.31,-122 2225.69,-122 2225.69,-86 2328.31,-86 2328.31,-122"/>
<text text-anchor="middle" x="2277" y="-99.8" font-family="Times,serif" font-size="14.00">StorageModule</text>
</g>
<!-- StorageModule&#45;&gt;ImagesModule -->
<g id="edge23" class="edge">
<title>StorageModule&#45;&gt;ImagesModule</title>
<path fill="none" stroke="black" d="M2277,-122.13C2277,-132.31 2277,-143 2277,-143 2277,-143 1900,-143 1900,-143 1900,-143 1900,-143.79 1900,-143.79"/>
<polygon fill="black" stroke="black" points="1896.5,-140.94 1900,-150.94 1903.5,-140.94 1896.5,-140.94"/>
</g>
<!-- StorageModule&#45;&gt;AppModule -->
<g id="edge11" class="edge">
<title>StorageModule&#45;&gt;AppModule</title>
<path fill="none" stroke="black" d="M2328.42,-113C2339.66,-113 2348.28,-113 2348.28,-113 2348.28,-113 2348.28,-324 2348.28,-324 2348.28,-324 1809.98,-324 1809.98,-324"/>
<polygon fill="black" stroke="black" points="1809.98,-320.5 1799.98,-324 1809.98,-327.5 1809.98,-320.5"/>
</g>
<!-- StorageService  -->
<g id="node33" class="node">
<title>StorageService </title>
<polygon fill="#fb8072" stroke="black" points="3266.24,-187 3161.76,-187 3161.76,-151 3266.24,-151 3266.24,-187"/>
<text text-anchor="middle" x="3214" y="-164.8" font-family="Times,serif" font-size="14.00">StorageService </text>
</g>
<!-- StorageModule&#45;&gt;StorageService  -->
<g id="edge40" class="edge">
<title>StorageModule&#45;&gt;StorageService </title>
<path fill="none" stroke="black" stroke-dasharray="5,2" d="M2328.38,-95C2524.36,-95 3214,-95 3214,-95 3214,-95 3214,-140.71 3214,-140.71"/>
<polygon fill="black" stroke="black" points="3210.5,-140.71 3214,-150.71 3217.5,-140.71 3210.5,-140.71"/>
</g>
<!-- TranslationsModule&#45;&gt;PlaceCategoriesModule -->
<g id="edge30" class="edge">
<title>TranslationsModule&#45;&gt;PlaceCategoriesModule</title>
<path fill="none" stroke="black" d="M2199.6,-163C2196.19,-163 2194.12,-163 2194.12,-163 2194.12,-163 2194.12,-245 2194.12,-245 2194.12,-245 2193.29,-245 2193.29,-245"/>
<polygon fill="black" stroke="black" points="2195.85,-241.5 2185.85,-245 2195.85,-248.5 2195.85,-241.5"/>
</g>
<!-- TranslationsModule&#45;&gt;PlaceTypesModule -->
<g id="edge36" class="edge">
<title>TranslationsModule&#45;&gt;PlaceTypesModule</title>
<path fill="none" stroke="black" d="M2303.22,-187.01C2303.22,-187.01 2303.22,-216.85 2303.22,-216.85"/>
<polygon fill="black" stroke="black" points="2299.72,-216.85 2303.22,-226.85 2306.72,-216.85 2299.72,-216.85"/>
</g>
<!-- TranslationsModule&#45;&gt;PlacesModule -->
<g id="edge34" class="edge">
<title>TranslationsModule&#45;&gt;PlacesModule</title>
<path fill="none" stroke="black" d="M2278.41,-187.13C2278.41,-197.71 2278.41,-209 2278.41,-209 2278.41,-209 1891.77,-209 1891.77,-209 1891.77,-209 1891.77,-216.58 1891.77,-216.58"/>
<polygon fill="black" stroke="black" points="1888.27,-216.58 1891.77,-226.58 1895.27,-216.58 1888.27,-216.58"/>
</g>
<!-- TranslationsModule&#45;&gt;AppModule -->
<g id="edge12" class="edge">
<title>TranslationsModule&#45;&gt;AppModule</title>
<path fill="none" stroke="black" d="M2199.42,-175C2197.79,-175 2196.87,-175 2196.87,-175 2196.87,-175 2196.87,-316 2196.87,-316 2196.87,-316 1809.68,-316 1809.68,-316"/>
<polygon fill="black" stroke="black" points="1809.68,-312.5 1799.68,-316 1809.68,-319.5 1809.68,-312.5"/>
</g>
<!-- TranslationsService  -->
<g id="node35" class="node">
<title>TranslationsService </title>
<polygon fill="#fb8072" stroke="black" points="1318.18,-263 1187.82,-263 1187.82,-227 1318.18,-227 1318.18,-263"/>
<text text-anchor="middle" x="1253" y="-240.8" font-family="Times,serif" font-size="14.00">TranslationsService </text>
</g>
<!-- TranslationsModule&#45;&gt;TranslationsService  -->
<g id="edge43" class="edge">
<title>TranslationsModule&#45;&gt;TranslationsService </title>
<path fill="none" stroke="black" stroke-dasharray="5,2" d="M2253.59,-187.14C2253.59,-193.46 2253.59,-199 2253.59,-199 2253.59,-199 1253,-199 1253,-199 1253,-199 1253,-216.82 1253,-216.82"/>
<polygon fill="black" stroke="black" points="1249.5,-216.82 1253,-226.82 1256.5,-216.82 1249.5,-216.82"/>
</g>
<!-- UsersModule&#45;&gt;AuthModule -->
<g id="edge15" class="edge">
<title>UsersModule&#45;&gt;AuthModule</title>
<path fill="none" stroke="black" d="M2151.24,-187.15C2151.24,-199.27 2151.24,-213 2151.24,-213 2151.24,-213 1997.89,-213 1997.89,-213 1997.89,-213 1997.89,-216.76 1997.89,-216.76"/>
<polygon fill="black" stroke="black" points="1994.39,-216.76 1997.89,-226.76 2001.39,-216.76 1994.39,-216.76"/>
</g>
<!-- UsersModule&#45;&gt;AppModule -->
<g id="edge13" class="edge">
<title>UsersModule&#45;&gt;AppModule</title>
<path fill="none" stroke="black" d="M2136,-187.11C2136,-196.9 2136,-207 2136,-207 2136,-207 1766.37,-207 1766.37,-207 1766.37,-207 1766.37,-281.59 1766.37,-281.59"/>
<polygon fill="black" stroke="black" points="1762.87,-281.59 1766.37,-291.59 1769.87,-281.59 1762.87,-281.59"/>
</g>
<!-- UsersService  -->
<g id="node37" class="node">
<title>UsersService </title>
<polygon fill="#fb8072" stroke="black" points="1599.85,-263 1506.15,-263 1506.15,-227 1599.85,-227 1599.85,-263"/>
<text text-anchor="middle" x="1553" y="-240.8" font-family="Times,serif" font-size="14.00">UsersService </text>
</g>
<!-- UsersModule&#45;&gt;UsersService  -->
<g id="edge46" class="edge">
<title>UsersModule&#45;&gt;UsersService </title>
<path fill="none" stroke="black" stroke-dasharray="5,2" d="M2120.76,-187.19C2120.76,-195.28 2120.76,-203 2120.76,-203 2120.76,-203 1553,-203 1553,-203 1553,-203 1553,-216.94 1553,-216.94"/>
<polygon fill="black" stroke="black" points="1549.5,-216.94 1553,-226.94 1556.5,-216.94 1549.5,-216.94"/>
</g>
<!-- AuthService -->
<g id="node17" class="node">
<title>AuthService</title>
<ellipse fill="#fdb462" stroke="black" cx="3593" cy="-169" rx="59.11" ry="18"/>
<text text-anchor="middle" x="3593" y="-164.8" font-family="Times,serif" font-size="14.00">AuthService</text>
</g>
<!-- AuthService&#45;&gt;AuthModule -->
<g id="edge18" class="edge">
<title>AuthService&#45;&gt;AuthModule</title>
<path fill="none" stroke="black" d="M3593,-187.15C3593,-200.74 3593,-217 3593,-217 3593,-217 2007.83,-217 2007.83,-217 2007.83,-217 2007.83,-217.98 2007.83,-217.98"/>
<polygon fill="black" stroke="black" points="2004.33,-216.79 2007.83,-226.79 2011.33,-216.79 2004.33,-216.79"/>
</g>
<!-- PayloadFromTokenPipe -->
<g id="node18" class="node">
<title>PayloadFromTokenPipe</title>
<ellipse fill="#fdb462" stroke="black" cx="3411" cy="-169" rx="104.82" ry="18"/>
<text text-anchor="middle" x="3411" y="-164.8" font-family="Times,serif" font-size="14.00">PayloadFromTokenPipe</text>
</g>
<!-- PayloadFromTokenPipe&#45;&gt;AuthModule -->
<g id="edge19" class="edge">
<title>PayloadFromTokenPipe&#45;&gt;AuthModule</title>
<path fill="none" stroke="black" d="M3411,-187.18C3411,-200.04 3411,-215 3411,-215 3411,-215 2002.86,-215 2002.86,-215 2002.86,-215 2002.86,-216.86 2002.86,-216.86"/>
<polygon fill="black" stroke="black" points="1999.36,-216.86 2002.86,-226.86 2006.36,-216.86 1999.36,-216.86"/>
</g>
<!-- UserFromTokenPipe -->
<g id="node19" class="node">
<title>UserFromTokenPipe</title>
<ellipse fill="#fdb462" stroke="black" cx="3762" cy="-169" rx="92.05" ry="18"/>
<text text-anchor="middle" x="3762" y="-164.8" font-family="Times,serif" font-size="14.00">UserFromTokenPipe</text>
</g>
<!-- UserFromTokenPipe&#45;&gt;AuthModule -->
<g id="edge20" class="edge">
<title>UserFromTokenPipe&#45;&gt;AuthModule</title>
<path fill="none" stroke="black" d="M3762,-187.05C3762,-201.37 3762,-219 3762,-219 3762,-219 2012.8,-219 2012.8,-219 2012.8,-219 2012.8,-219.79 2012.8,-219.79"/>
<polygon fill="black" stroke="black" points="2009.3,-216.94 2012.8,-226.94 2016.3,-216.94 2009.3,-216.94"/>
</g>
<!-- CommentsService -->
<g id="node21" class="node">
<title>CommentsService</title>
<ellipse fill="#fdb462" stroke="black" cx="106" cy="-245" rx="81.68" ry="18"/>
<text text-anchor="middle" x="106" y="-240.8" font-family="Times,serif" font-size="14.00">CommentsService</text>
</g>
<!-- CommentsService&#45;&gt;CommentsModule -->
<g id="edge22" class="edge">
<title>CommentsService&#45;&gt;CommentsModule</title>
<path fill="none" stroke="black" d="M106,-226.8C106,-202.64 106,-163 106,-163 106,-163 1701.72,-163 1701.72,-163"/>
<polygon fill="black" stroke="black" points="1701.72,-166.5 1711.72,-163 1701.72,-159.5 1701.72,-166.5"/>
</g>
<!-- ImagesService -->
<g id="node23" class="node">
<title>ImagesService</title>
<ellipse fill="#fdb462" stroke="black" cx="442" cy="-245" rx="67.75" ry="18"/>
<text text-anchor="middle" x="442" y="-240.8" font-family="Times,serif" font-size="14.00">ImagesService</text>
</g>
<!-- ImagesService&#45;&gt;ImagesModule -->
<g id="edge25" class="edge">
<title>ImagesService&#45;&gt;ImagesModule</title>
<path fill="none" stroke="black" d="M442,-226.97C442,-210.6 442,-189 442,-189 442,-189 1860.45,-189 1860.45,-189 1860.45,-189 1860.45,-188.82 1860.45,-188.82"/>
<polygon fill="black" stroke="black" points="1863.95,-197.15 1860.45,-187.15 1856.95,-197.15 1863.95,-197.15"/>
</g>
<!-- LanguagesService -->
<g id="node25" class="node">
<title>LanguagesService</title>
<ellipse fill="#fdb462" stroke="black" cx="2450" cy="-169" rx="81.64" ry="18"/>
<text text-anchor="middle" x="2450" y="-164.8" font-family="Times,serif" font-size="14.00">LanguagesService</text>
</g>
<!-- LanguagesService&#45;&gt;LanguagesModule -->
<g id="edge27" class="edge">
<title>LanguagesService&#45;&gt;LanguagesModule</title>
<path fill="none" stroke="black" d="M2450,-150.86C2450,-144.54 2450,-139 2450,-139 2450,-139 2092.89,-139 2092.89,-139 2092.89,-139 2092.89,-132.32 2092.89,-132.32"/>
<polygon fill="black" stroke="black" points="2096.39,-132.32 2092.89,-122.32 2089.39,-132.32 2096.39,-132.32"/>
</g>
<!-- MailingService -->
<g id="node27" class="node">
<title>MailingService</title>
<ellipse fill="#fdb462" stroke="black" cx="747" cy="-245" rx="70.64" ry="18"/>
<text text-anchor="middle" x="747" y="-240.8" font-family="Times,serif" font-size="14.00">MailingService</text>
</g>
<!-- MailingService&#45;&gt;MailingModule -->
<g id="edge29" class="edge">
<title>MailingService&#45;&gt;MailingModule</title>
<path fill="none" stroke="black" d="M747,-226.81C747,-211.82 747,-193 747,-193 747,-193 1973.03,-193 1973.03,-193 1973.03,-193 1973.03,-192.42 1973.03,-192.42"/>
<polygon fill="black" stroke="black" points="1976.53,-197.19 1973.03,-187.19 1969.53,-197.19 1976.53,-197.19"/>
</g>
<!-- PlaceCategoriesService -->
<g id="node28" class="node">
<title>PlaceCategoriesService</title>
<ellipse fill="#fdb462" stroke="black" cx="4222" cy="-169" rx="102.4" ry="18"/>
<text text-anchor="middle" x="4222" y="-164.8" font-family="Times,serif" font-size="14.00">PlaceCategoriesService</text>
</g>
<!-- PlaceCategoriesService&#45;&gt;PlaceCategoriesModule -->
<g id="edge31" class="edge">
<title>PlaceCategoriesService&#45;&gt;PlaceCategoriesModule</title>
<path fill="none" stroke="black" d="M4222,-187.03C4222,-203.4 4222,-225 4222,-225 4222,-225 2166.47,-225 2166.47,-225 2166.47,-225 2166.47,-225.18 2166.47,-225.18"/>
<polygon fill="black" stroke="black" points="2162.97,-216.85 2166.47,-226.85 2169.97,-216.85 2162.97,-216.85"/>
</g>
<!-- PlacesService -->
<g id="node29" class="node">
<title>PlacesService</title>
<ellipse fill="#fdb462" stroke="black" cx="4429" cy="-169" rx="64.82" ry="18"/>
<text text-anchor="middle" x="4429" y="-164.8" font-family="Times,serif" font-size="14.00">PlacesService</text>
</g>
<!-- PlacesService&#45;&gt;PlacesModule -->
<g id="edge35" class="edge">
<title>PlacesService&#45;&gt;PlacesModule</title>
<path fill="none" stroke="black" d="M4429,-187.06C4429,-198.44 4429,-211 4429,-211 4429,-211 1902.22,-211 1902.22,-211 1902.22,-211 1902.22,-216.81 1902.22,-216.81"/>
<polygon fill="black" stroke="black" points="1898.72,-216.81 1902.22,-226.81 1905.72,-216.81 1898.72,-216.81"/>
</g>
<!-- PlaceTypesService -->
<g id="node30" class="node">
<title>PlaceTypesService</title>
<ellipse fill="#fdb462" stroke="black" cx="4619" cy="-169" rx="84.51" ry="18"/>
<text text-anchor="middle" x="4619" y="-164.8" font-family="Times,serif" font-size="14.00">PlaceTypesService</text>
</g>
<!-- PlaceTypesService&#45;&gt;PlaceTypesModule -->
<g id="edge37" class="edge">
<title>PlaceTypesService&#45;&gt;PlaceTypesModule</title>
<path fill="none" stroke="black" d="M4619,-187.01C4619,-209.49 4619,-245 4619,-245 4619,-245 2338.33,-245 2338.33,-245"/>
<polygon fill="black" stroke="black" points="2338.33,-241.5 2328.33,-245 2338.33,-248.5 2338.33,-241.5"/>
</g>
<!-- RolesService -->
<g id="node32" class="node">
<title>RolesService</title>
<ellipse fill="#fdb462" stroke="black" cx="2780" cy="-169" rx="61.97" ry="18"/>
<text text-anchor="middle" x="2780" y="-164.8" font-family="Times,serif" font-size="14.00">RolesService</text>
</g>
<!-- RolesService&#45;&gt;RolesModule -->
<g id="edge39" class="edge">
<title>RolesService&#45;&gt;RolesModule</title>
<path fill="none" stroke="black" d="M2780,-150.89C2780,-141.1 2780,-131 2780,-131 2780,-131 2188.62,-131 2188.62,-131 2188.62,-131 2188.62,-130.12 2188.62,-130.12"/>
<polygon fill="black" stroke="black" points="2192.12,-132.16 2188.62,-122.16 2185.12,-132.16 2192.12,-132.16"/>
</g>
<!-- StorageService -->
<g id="node34" class="node">
<title>StorageService</title>
<ellipse fill="#fdb462" stroke="black" cx="3069" cy="-169" rx="69.48" ry="18"/>
<text text-anchor="middle" x="3069" y="-164.8" font-family="Times,serif" font-size="14.00">StorageService</text>
</g>
<!-- StorageService&#45;&gt;StorageModule -->
<g id="edge41" class="edge">
<title>StorageService&#45;&gt;StorageModule</title>
<path fill="none" stroke="black" d="M3069,-150.89C3069,-131.66 3069,-104 3069,-104 3069,-104 2338.36,-104 2338.36,-104"/>
<polygon fill="black" stroke="black" points="2338.36,-100.5 2328.36,-104 2338.36,-107.5 2338.36,-100.5"/>
</g>
<!-- TranslationsService -->
<g id="node36" class="node">
<title>TranslationsService</title>
<ellipse fill="#fdb462" stroke="black" cx="1076" cy="-245" rx="87.95" ry="18"/>
<text text-anchor="middle" x="1076" y="-240.8" font-family="Times,serif" font-size="14.00">TranslationsService</text>
</g>
<!-- TranslationsService&#45;&gt;TranslationsModule -->
<g id="edge44" class="edge">
<title>TranslationsService&#45;&gt;TranslationsModule</title>
<path fill="none" stroke="black" d="M1076,-226.85C1076,-213.26 1076,-197 1076,-197 1076,-197 2228.78,-197 2228.78,-197 2228.78,-197 2228.78,-196.02 2228.78,-196.02"/>
<polygon fill="black" stroke="black" points="2232.28,-197.21 2228.78,-187.21 2225.28,-197.21 2232.28,-197.21"/>
</g>
<!-- UsersService -->
<g id="node38" class="node">
<title>UsersService</title>
<ellipse fill="#fdb462" stroke="black" cx="1420" cy="-245" rx="61.95" ry="18"/>
<text text-anchor="middle" x="1420" y="-240.8" font-family="Times,serif" font-size="14.00">UsersService</text>
</g>
<!-- UsersService&#45;&gt;UsersModule -->
<g id="edge47" class="edge">
<title>UsersService&#45;&gt;UsersModule</title>
<path fill="none" stroke="black" d="M1420,-226.85C1420,-214.73 1420,-201 1420,-201 1420,-201 2105.53,-201 2105.53,-201 2105.53,-201 2105.53,-197.24 2105.53,-197.24"/>
<polygon fill="black" stroke="black" points="2109.03,-197.24 2105.53,-187.24 2102.03,-197.24 2109.03,-197.24"/>
</g>
</g>
</svg>
