<?xml version="1.0" encoding="UTF-8" standalone="no"?>
<!DOCTYPE svg PUBLIC "-//W3C//DTD SVG 1.1//EN"
 "http://www.w3.org/Graphics/SVG/1.1/DTD/svg11.dtd">
<!-- Generated by graphviz version 2.47.0 (20210316.0004)
 -->
<!-- Title: dependencies Pages: 1 -->
<svg width="504pt" height="211pt"
 viewBox="0.00 0.00 504.00 211.00" xmlns="http://www.w3.org/2000/svg" xmlns:xlink="http://www.w3.org/1999/xlink">
<g id="graph0" class="graph" transform="scale(1 1) rotate(0) translate(4 207)">
<title>dependencies</title>
<polygon fill="white" stroke="transparent" points="-4,4 -4,-207 500,-207 500,4 -4,4"/>
<text text-anchor="start" x="227.01" y="-42.4" font-family="Times-12" font-weight="bold" font-size="14.00">Legend</text>
<polygon fill="#ffffb3" stroke="transparent" points="14,-10 14,-30 34,-30 34,-10 14,-10"/>
<text text-anchor="start" x="37.63" y="-15.4" font-family="Times-12" font-size="14.00"> &#160;Declarations</text>
<polygon fill="#8dd3c7" stroke="transparent" points="127,-10 127,-30 147,-30 147,-10 127,-10"/>
<text text-anchor="start" x="150.73" y="-15.4" font-family="Times-12" font-size="14.00"> &#160;Module</text>
<polygon fill="#80b1d3" stroke="transparent" points="213,-10 213,-30 233,-30 233,-10 213,-10"/>
<text text-anchor="start" x="236.78" y="-15.4" font-family="Times-12" font-size="14.00"> &#160;Bootstrap</text>
<polygon fill="#fdb462" stroke="transparent" points="310,-10 310,-30 330,-30 330,-10 310,-10"/>
<text text-anchor="start" x="333.67" y="-15.4" font-family="Times-12" font-size="14.00"> &#160;Providers</text>
<polygon fill="#fb8072" stroke="transparent" points="406,-10 406,-30 426,-30 426,-10 406,-10"/>
<text text-anchor="start" x="429.73" y="-15.4" font-family="Times-12" font-size="14.00"> &#160;Exports</text>
<g id="clust1" class="cluster">
<title>cluster_PlaceCategoriesModule</title>
<polygon fill="none" stroke="black" stroke-dasharray="1,5" points="54,-70 54,-195 442,-195 442,-70 54,-70"/>
</g>
<g id="clust3" class="cluster">
<title>cluster_PlaceCategoriesModule_imports</title>
<polygon fill="none" stroke="black" points="290,-78 290,-130 434,-130 434,-78 290,-78"/>
</g>
<g id="clust6" class="cluster">
<title>cluster_PlaceCategoriesModule_providers</title>
<polygon fill="none" stroke="black" points="62,-78 62,-130 282,-130 282,-78 62,-78"/>
</g>
<!-- TranslationsModule -->
<g id="node1" class="node">
<title>TranslationsModule</title>
<polygon fill="#8dd3c7" stroke="black" points="426.25,-122 423.25,-126 402.25,-126 399.25,-122 297.75,-122 297.75,-86 426.25,-86 426.25,-122"/>
<text text-anchor="middle" x="362" y="-99.8" font-family="Times,serif" font-size="14.00">TranslationsModule</text>
</g>
<!-- PlaceCategoriesModule -->
<g id="node2" class="node">
<title>PlaceCategoriesModule</title>
<polygon fill="#8dd3c7" stroke="black" points="339.73,-187 336.73,-191 315.73,-191 312.73,-187 190.27,-187 190.27,-151 339.73,-151 339.73,-187"/>
<text text-anchor="middle" x="265" y="-164.8" font-family="Times,serif" font-size="14.00">PlaceCategoriesModule</text>
</g>
<!-- TranslationsModule&#45;&gt;PlaceCategoriesModule -->
<g id="edge1" class="edge">
<title>TranslationsModule&#45;&gt;PlaceCategoriesModule</title>
<path fill="none" stroke="black" d="M318.75,-122.11C318.75,-122.11 318.75,-140.99 318.75,-140.99"/>
<polygon fill="black" stroke="black" points="315.25,-140.99 318.75,-150.99 322.25,-140.99 315.25,-140.99"/>
</g>
<!-- PlaceCategoriesService -->
<g id="node3" class="node">
<title>PlaceCategoriesService</title>
<ellipse fill="#fdb462" stroke="black" cx="172" cy="-104" rx="102.4" ry="18"/>
<text text-anchor="middle" x="172" y="-99.8" font-family="Times,serif" font-size="14.00">PlaceCategoriesService</text>
</g>
<!-- PlaceCategoriesService&#45;&gt;PlaceCategoriesModule -->
<g id="edge2" class="edge">
<title>PlaceCategoriesService&#45;&gt;PlaceCategoriesModule</title>
<path fill="none" stroke="black" d="M232.17,-118.75C232.17,-118.75 232.17,-140.59 232.17,-140.59"/>
<polygon fill="black" stroke="black" points="228.67,-140.59 232.17,-150.59 235.67,-140.59 228.67,-140.59"/>
</g>
</g>
</svg>
